<svg width="42" height="47" fill="none" xmlns="http://www.w3.org/2000/svg"><path d="M4 16v8.5m0 0h11m-11 0v10.25M15 24.5V16m0 8.5v10.25m0-10.25L4 34.75M15 45V34.75m0 0H4m11 0L4 45V34.75M6 6l-4 4h6.25M6 6h5M6 6l2.25 4M26 6l3.5 4h-7M26 6l-3.5 4M26 6h-8m4.5 4L18 6m4.5 4h-8M18 6l-3.5 4M18 6h-7m3.5 4L11 6m3.5 4H8.25M11 6l-2.75 4m14.5.75h9.5v6.5h-9.5zm14-4h4.5v6.5h-4.5zM30 1v9.5h2.5L30 1z" stroke="#fff" stroke-width="1.5"/><path d="M32 10.5h4.5v-4H32M25.5 18v5m0 22h5v-5.5m-5 5.5v-7.5m0 7.5l5-5.5m-5-16.5l5-5v8m-5-3v7m5-4l-5 4m5-4v8m-5-4v7.5m5-3.5l-5 3.5m5-3.5v5.5m9 5.5H0m15-18h4m-4 3h4m-4 3h4m-4 3h4m-4 3h4m-4 3h4" stroke="#fff" stroke-width="1.5"/></svg>