<svg width="40" height="56" fill="none" xmlns="http://www.w3.org/2000/svg"><path d="M22.636 3.629l.359.351.461-.198 3.39-1.453 1.526 3.358.207.457.502-.018 3.686-.13.21 3.681.029.502.474.164 3.484 1.21-1.134 3.51-.155.477.383.325 2.812 2.386-2.325 2.863-.317.39.24.44 1.76 3.242-3.203 1.83-.436.248.064.498.47 3.658-3.647.55-.496.074-.12.487-.884 3.581-3.599-.805-.49-.11-.288.411-2.117 3.02-3.065-2.051-.417-.28-.417.28-3.065 2.051-2.117-3.02-.288-.411-.49.11-3.6.805-.882-3.58-.12-.488-.497-.075-3.647-.549.47-3.658.064-.498-.436-.248-3.202-1.83 1.76-3.241.239-.441-.316-.39-2.326-2.863 2.812-2.386.383-.325-.155-.478-1.134-3.509 3.484-1.21.474-.165.029-.5.21-3.683 3.686.13.502.019.207-.457 1.526-3.358 3.39 1.453.461.198.36-.351L20 1.049l2.636 2.58z" stroke="#fff" stroke-width="1.5"/><path d="M9.5 33C5.235 38.142 3.784 42.208 2 49.5l9.5-2.5 4.5 6c.58-6.77 1.005-10.286 4-14.5M30.5 33c4.703 4.421 5.712 8.755 7.5 16.5L28.5 47 24 53c-.43-7.098-.809-10.902-4-14.5m0-27.934l2.768 5.076.17.313.35.066 5.684 1.064L25 21.286l-.245.259.046.353.744 5.734-5.223-2.48L20 25l-.322.152-5.223 2.48.744-5.734.046-.353-.245-.259-3.972-4.201 5.683-1.064.35-.066.17-.313L20 10.567z" stroke="#fff" stroke-width="1.5"/></svg>