<svg width="30" height="30" fill="none" xmlns="http://www.w3.org/2000/svg"><circle cx="15" cy="15" r="15" fill="#fff"/><path fill-rule="evenodd" clip-rule="evenodd" d="M15.253 8.346h-.507c-1.497 0-2.525.001-3.32.07-.777.066-1.192.188-1.492.35a3.5 3.5 0 00-1.419 1.418c-.161.3-.283.715-.35 1.491-.068.796-.07 1.824-.07 3.32v.508c0 1.497.002 2.525.07 3.32.067.777.189 1.192.35 1.492a3.5 3.5 0 001.419 1.419c.3.161.715.283 1.491.35.796.068 1.824.07 3.32.07h.508c1.497 0 2.525-.002 3.32-.07.777-.067 1.192-.189 1.492-.35a3.501 3.501 0 001.419-1.419c.161-.3.283-.715.35-1.491.068-.796.07-1.824.07-3.32v-.508c0-1.497-.002-2.525-.07-3.32-.067-.777-.189-1.192-.35-1.492a3.5 3.5 0 00-1.419-1.419c-.3-.161-.715-.283-1.491-.35-.796-.068-1.824-.07-3.32-.07zM7.195 9.47c-.6 1.112-.6 2.583-.6 5.525v.507c0 2.942 0 4.413.6 5.525a5 5 0 002.026 2.026c1.112.6 2.583.6 5.525.6h.507c2.942 0 4.413 0 5.525-.6a5 5 0 002.026-2.026c.6-1.112.6-2.583.6-5.525v-.507c0-2.942 0-4.413-.6-5.525a5 5 0 00-2.026-2.026c-1.112-.6-2.583-.6-5.525-.6h-.507c-2.942 0-4.413 0-5.525.6A5 5 0 007.195 9.47z" fill="#1B2E50"/><path fill-rule="evenodd" clip-rule="evenodd" d="M14.999 18.807a3.32 3.32 0 100-6.638 3.32 3.32 0 000 6.638zm0 1.25a4.57 4.57 0 100-9.138 4.57 4.57 0 000 9.138z" fill="#1B2E50"/><path d="M20.728 10.235a.683.683 0 11-1.367 0 .683.683 0 011.367 0z" fill="#1B2E50"/></svg>