<svg width="30" height="30" fill="none" xmlns="http://www.w3.org/2000/svg"><circle cx="15" cy="15" r="15" fill="#fff"/><path fill-rule="evenodd" clip-rule="evenodd" d="M15 24.304a9.304 9.304 0 100-18.608 9.304 9.304 0 000 18.608zM9.533 12.248c0 1.512 3.08 5.709 4.448 5.709h1.856c.143-.904.237-1.254.414-1.315.775.414 1.067.768 1.55 1.355l.07.085H20.7c-.098-1.245-2.07-2.593-2.07-2.593.1-.153.216-.325.34-.508.66-.977 1.546-2.29 1.546-2.87-.209 0-2.643-.044-2.643-.044-.495 1.444-.867 2.092-1.783 2.774l-.19-2.73c-.194-.229-2.5-.372-2.686.136.604.324.74 2.06.48 2.486-.37.607-1.517-1.273-1.926-2.485H9.533z" fill="#1B2E50"/></svg>