<svg width="62" height="62" fill="none" xmlns="http://www.w3.org/2000/svg"><circle cx="31" cy="31" r="25" fill="#fff"/><circle opacity=".2" cx="31" cy="31" r="31" fill="#fff"/><path d="M20.704 28.183v-3.576h2.091c.968 0 1.743-.258 2.298-.761.568-.504.852-1.162.852-1.976 0-.813-.284-1.458-.852-1.962-.555-.503-1.33-.762-2.298-.762h-3.95v9.037h1.859zm0-7.41h1.962c.89 0 1.42.4 1.42 1.123s-.53 1.123-1.42 1.123h-1.962v-2.246zm10.033 7.41c1.459 0 2.66-.413 3.576-1.252.916-.84 1.381-1.936 1.381-3.266s-.465-2.414-1.381-3.253c-.917-.84-2.117-1.265-3.576-1.265h-3.382v9.036h3.382zm-1.523-7.371h1.368c2.014 0 3.201 1.058 3.201 2.853 0 1.794-1.187 2.853-3.201 2.853h-1.369v-5.706zm10.022 7.371v-3.898h3.68v-1.64h-3.68v-1.833H44v-1.666h-6.623v9.037h1.86z" fill="#1B2E50"/><path d="M31 32v12m0 0l5-4.941M31 44l-5-4.941M26 47h10" stroke="#1B2E50" stroke-width="1.5"/></svg>