<svg width="149" height="128" fill="none" xmlns="http://www.w3.org/2000/svg"><path d="M86.316 71.64c-5.535 0-10.96-2.026-15.046-6.122L44.624 38.882c-8.512-8.522-8.09-22.789.944-31.823 9.035-9.026 23.31-9.456 31.823-.944L81 9.725l-2.236 2.236-3.62-3.61C67.86 1.075 55.6 1.506 47.803 9.294c-7.798 7.789-8.21 20.067-.935 27.343l26.637 26.636c7.275 7.285 19.535 6.863 27.333-.925 7.798-7.798 8.228-20.076.934-27.351l-10.17-10.171c-1.31-1.31-3.317-2.172-5.37-2.3-2.263-.147-4.242.577-5.69 2.016L67.87 37.214l-2.236-2.236 12.672-12.672c2.108-2.098 5.003-3.152 8.137-2.941 2.85.183 5.543 1.356 7.403 3.225l10.171 10.17c8.513 8.522 8.1 22.798-.943 31.833-4.674 4.682-10.776 7.046-16.76 7.046z" fill="#fff"/><path d="M86.215 66.251c-4.49 0-8.623-1.686-11.72-4.783l-25.82-25.821c-6.635-6.634-6.305-17.74.714-24.767 7.019-7.028 18.124-7.35 24.758-.715l3.244 3.244-2.236 2.235-3.243-3.243c-5.398-5.397-14.496-5.068-20.287.714-5.791 5.791-6.103 14.89-.715 20.287l25.83 25.821c2.603 2.603 6.085 4.032 9.942 3.849 3.858-.12 7.523-1.741 10.345-4.563 2.822-2.813 4.435-6.488 4.563-10.336.119-3.812-1.246-7.349-3.848-9.951l-7.752-7.743c-3.207-3.216-4.838-3.271-7.89-.21L71.528 40.851l-2.236-2.245 10.574-10.574c4.325-4.316 7.898-4.252 12.37.21l7.743 7.743c3.225 3.225 4.92 7.596 4.774 12.288-.147 4.654-2.099 9.098-5.489 12.48-3.39 3.39-7.825 5.342-12.49 5.479-.182.018-.375.018-.558.018z" fill="#fff"/><path d="M86.5 61.22c-2.979 0-5.902-1.09-8.11-3.298L52.688 32.22c-4.582-4.581-4.37-12.736.476-17.575 4.838-4.828 12.682-5.232 17.263-.65l3.198 3.207-2.235 2.245-3.207-3.207C64.829 12.895 59 13.299 55.4 16.9c-3.61 3.6-3.82 9.749-.467 13.094l25.702 25.71c3.335 3.345 8.998 2.64 12.6-.961 1.758-1.75 2.766-4.05 2.849-6.451.073-2.364-.55-4.765-2.154-6.378l-5.717-5.717c-1.943-1.943-2.667-1.906-4.655.082L75.22 44.6l-2.236-2.235 8.567-8.55c3.656-3.656 5.05-3.729 8.916.138l5.718 5.718c2.235 2.226 3.188 5.47 3.087 8.723-.1 3.207-1.438 6.258-3.766 8.585-2.547 2.483-5.809 4.243-9.007 4.243zM51.234 49.376l-8.216 8.227 2.243 2.24 8.216-8.227-2.243-2.24zm3.641 3.642l-8.22 8.224 2.243 2.241 8.22-8.224-2.243-2.241zm3.701 3.743l-8.22 8.223 2.235 2.235 8.221-8.223-2.236-2.235zm-36.072 49.02c-2.904 1.548-6.212 2.364-9.887 2.364C5.26 108.145 0 103.151 0 95.692c0-7.66 5.26-12.654 12.617-12.654 3.647 0 6.918.779 9.41 3.005l-3.133 3.17c-1.521-1.483-3.848-2.326-6.24-2.326-4.93 0-8.2 3.775-8.2 8.54 0 5.094 3.27 8.878 8.2 8.878 2.162 0 4.114-.403 5.599-1.246v-5.635H13.36v-3.849h9.144v12.206zm6.267-22.129h4.252v20.04h10.153v3.848H28.77V83.652zm29.807-.614c7.459-.138 12.718 4.856 12.718 12.517 0 7.458-5.259 12.452-12.718 12.589-7.358 0-12.617-4.993-12.617-12.452 0-7.66 5.26-12.654 12.617-12.654zm.037 21.258c4.957 0 8.238-3.784 8.238-8.879 0-4.755-3.272-8.54-8.238-8.54-4.93 0-8.2 3.775-8.2 8.54 0 5.104 3.27 8.879 8.2 8.879zM76.74 83.652h8.301c4.59 0 8.907 1.485 8.907 6.854 0 3.445-1.989 5.975-5.535 6.478l6.341 10.565h-5.131l-5.535-10.125h-3.106v10.125h-4.251V83.652h.009zm7.55 10.116c2.391 0 5.195-.201 5.195-3.308 0-2.83-2.63-3.17-4.829-3.17h-3.674v6.478h3.308zm24.566-10.116h3.674l10.29 23.888h-4.856l-2.227-5.47h-10.363l-2.162 5.47h-4.756l10.4-23.888zm5.397 14.78l-3.674-9.722-3.748 9.722h7.422zm19.599-3.382l-7.962-11.407h5.36l5.635 8.842 5.571-8.842h5.159L139.79 95.05l8.668 12.49h-5.397l-6.313-10.089-6.277 10.089h-5.131l8.512-12.49zM20.818 119.442h3.143c2.098 0 4.05 1.283 4.05 3.986 0 2.722-2.31 3.986-4.224 3.986h-2.978v-7.972h.009zm2.474 6.689c1.777 0 3.234-.769 3.234-2.703 0-1.933-1.264-2.703-2.996-2.703h-1.292v5.406h1.054zm8.402-6.689h5.278v1.283h-3.867v1.961h3.657v1.283h-3.657v2.162h4.069v1.283h-5.48v-7.972zm8.439 0h1.63l2.172 6.02 2.245-6.02h1.53l-3.216 7.972h-1.227l-3.134-7.972zm10.822 0h5.278v1.283h-3.858v1.961h3.656v1.283h-3.656v2.162h4.069v1.283h-5.48v-7.972h-.009zm9.227 0h1.42v6.689h3.39v1.283h-4.81v-7.972zm11.774-.201c2.492-.046 4.243 1.622 4.243 4.178 0 2.493-1.76 4.16-4.243 4.197-2.456 0-4.215-1.668-4.215-4.16 0-2.547 1.76-4.215 4.215-4.215zm.01 7.092c1.658 0 2.748-1.264 2.748-2.959 0-1.586-1.09-2.85-2.749-2.85-1.64 0-2.74 1.264-2.74 2.85 0 1.704 1.1 2.959 2.74 2.959zm7.934-6.891h2.685c1.54 0 2.942.541 2.942 2.309 0 2.007-1.494 2.364-3.19 2.364h-1.016v3.299H79.9v-7.972zm2.282 3.464c.806 0 1.86-.046 1.86-1.127 0-.98-.935-1.118-1.695-1.118H81.33v2.245h.852zm6.817-3.464h2.163l2.125 5.59 2.154-5.59h2.135v7.972h-1.347v-6.625h-.019l-2.419 6.625h-.99l-2.418-6.625h-.019v6.625h-1.347v-7.972H89zm12.719 0h5.278v1.283h-3.867v1.961h3.656v1.283h-3.656v2.162h4.068v1.283h-5.479v-7.972zm9.226 0h1.879l3.867 5.92h.018v-5.92h1.42v7.972h-1.805l-3.94-6.112h-.018v6.112h-1.421v-7.972zm12.939 1.283h-2.446v-1.283h6.304v1.283h-2.447v6.689h-1.42v-6.689h.009z" fill="#fff"/></svg>