<svg width="150" height="119" fill="none" xmlns="http://www.w3.org/2000/svg"><path d="M3.012 102.156c1.248 0 2.292-.42 3.132-1.26.852-.84 1.272-1.872 1.272-3.096 0-1.236-.42-2.268-1.26-3.096-.84-.84-1.884-1.26-3.132-1.26-.828 0-1.584.192-2.268.576v1.332a4.134 4.134 0 012.292-.672c.72 0 1.344.228 1.872.672.54.444.864 1.032.996 1.74H2.4v1.212h3.588c-.108.768-.432 1.392-.996 1.884-.552.492-1.212.732-1.98.732-.972 0-1.788-.264-2.436-.78v1.356c.672.444 1.488.66 2.436.66zm7.364-.156v-2.664L13.004 102h1.776l-3.216-3.252 2.796-2.64h-1.656l-2.328 2.232v-2.232H9.08V102h1.296zm7.886.156c.696 0 1.32-.156 1.884-.48v-1.104c-.492.3-1.056.444-1.68.444-.588 0-1.08-.18-1.488-.552a1.876 1.876 0 01-.6-1.416c0-.564.204-1.032.6-1.404.408-.372.9-.552 1.488-.552.528 0 1.056.132 1.584.384V96.36c-.516-.276-1.116-.408-1.776-.408-.888 0-1.644.288-2.268.864-.612.576-.924 1.32-.924 2.22 0 .912.312 1.656.924 2.244.624.588 1.38.876 2.256.876zm4.771-.156v-2.664L25.66 102h1.776l-3.216-3.252 2.796-2.64H25.36l-2.328 2.232v-2.232h-1.296V102h1.296zm9.831-4.752V102h1.296v-5.892h-4.752l-.036 1.92c-.036 2.052-.336 2.868-1.188 2.868a1 1 0 01-.264-.036v1.116c.12.036.252.048.408.048 1.188-.048 1.764-.696 2.028-1.74.204-.756.252-1.32.264-2.184l.024-.852h2.22zm8.57 4.908c.876 0 1.596-.3 2.16-.888.564-.6.852-1.344.852-2.22 0-.876-.288-1.608-.852-2.196-.564-.6-1.284-.9-2.16-.9-.756 0-1.404.228-1.944.696a2.899 2.899 0 00-.984 1.776h-1.2v-2.316H36.01V102h1.296v-2.436h1.176c.108.756.42 1.38.96 1.872.54.48 1.2.72 1.992.72zm1.728-3.108c0 .564-.156 1.032-.48 1.404a1.574 1.574 0 01-1.248.564c-.516 0-.936-.192-1.26-.564-.324-.372-.48-.84-.48-1.404 0-.552.156-1.02.48-1.392a1.598 1.598 0 011.26-.564c.516 0 .924.192 1.248.564.324.372.48.84.48 1.392zm4.402 3.108c.852 0 1.548-.168 2.064-.516s.78-.804.78-1.356c0-.732-.372-1.212-1.128-1.452.6-.216.9-.648.9-1.296 0-.468-.24-.84-.708-1.14-.468-.3-1.068-.444-1.776-.444-.864 0-1.596.132-2.208.408v1.14c.66-.288 1.308-.432 1.932-.432.948 0 1.428.228 1.428.684 0 .432-.372.648-1.104.648h-1.092v1.044h1.092c.864 0 1.296.252 1.296.744 0 .54-.636.852-1.656.852a4.76 4.76 0 01-2.064-.48v1.176c.588.276 1.332.42 2.244.42zm5.572-.156l3.18-4.008V102h1.296v-5.892H56.4l-3.18 3.996v-3.996h-1.296V102h1.212zm9.719 0c1.308 0 2.064-.612 2.064-1.608 0-.78-.384-1.284-1.152-1.512.444-.204.756-.684.756-1.272 0-.864-.66-1.5-1.848-1.5H59.46V102h3.396zm-2.1-2.496h1.872c.612 0 .972.264.972.732 0 .444-.36.72-.972.72h-1.872v-1.452zm0-2.352h1.608c.588 0 .888.216.888.66 0 .396-.324.648-.888.648h-1.608v-1.308zM67.728 102v-2.448h2.988V102h1.296v-5.892h-1.296v2.304h-2.988v-2.304h-1.296V102h1.296zm13.358 0v-5.892H79.79V102h1.296zm-4.44 0c.732 0 1.296-.192 1.704-.576.408-.396.612-.888.612-1.476 0-1.248-.936-2.052-2.376-2.052h-1.428v-1.788h-1.296V102h2.784zm-1.488-3.012h1.284c.768 0 1.212.348 1.212.96 0 .588-.456.96-1.212.96h-1.284v-1.92zM84.144 102l3.18-4.008V102h1.296v-5.892h-1.212l-3.18 3.996v-3.996h-1.296V102h1.212zm1.632-6.684c1.2 0 2.064-.768 2.076-1.98h-1.104c-.012.576-.408.984-.984.984-.588 0-.972-.408-.972-.984H83.7c.012 1.212.864 1.98 2.076 1.98zM94.88 102v-4.752h2.904V102h1.296v-5.892h-5.496V102h1.296zm11.584-1.008c-.288 0-.492-.216-.492-.588v-2.196c0-1.44-1.092-2.256-2.724-2.256-.852 0-1.56.168-2.148.504v1.14a3.49 3.49 0 011.86-.528c1.152 0 1.728.432 1.728 1.284v.324c-.54-.3-1.176-.456-1.884-.456-.66 0-1.224.168-1.68.516-.456.336-.684.816-.684 1.44 0 .612.204 1.104.624 1.452.42.348.948.528 1.584.528.912 0 1.632-.3 2.172-.912.156.564.576.84 1.236.84.324 0 .576-.06.756-.192v-.984a.68.68 0 01-.348.084zm-1.776-.66c-.372.396-1.008.708-1.68.708-.756 0-1.272-.312-1.272-.936 0-.576.516-.912 1.38-.912.552 0 1.08.144 1.572.42v.72zm6.8-4.38c-.912 0-1.608.324-2.1.96v-.804h-1.296v8.292h1.296v-3.204c.492.636 1.188.96 2.1.96.828 0 1.512-.3 2.052-.9.54-.6.804-1.332.804-2.196 0-.876-.264-1.608-.804-2.208-.54-.6-1.224-.9-2.052-.9zm-.348 1.14c.54 0 .996.192 1.356.576.36.372.54.84.54 1.392 0 .54-.18 1.008-.54 1.392a1.82 1.82 0 01-1.356.564 2.029 2.029 0 01-1.752-1.044v-1.824a1.992 1.992 0 011.752-1.056zm7.068 4.908v-4.752h1.98v-1.14h-5.268v1.14h1.992V102h1.296zm4.457 0v-2.448h2.988V102h1.296v-5.892h-1.296v2.304h-2.988v-2.304h-1.296V102h1.296zm5.714-2.952c0 .924.312 1.668.936 2.244.636.576 1.404.864 2.316.864.912 0 1.632-.192 2.172-.576v-1.092a3.644 3.644 0 01-1.896.528c-1.2 0-2.064-.588-2.22-1.584h4.512v-.336c0-1.068-.372-2.04-1.248-2.664-.432-.324-.948-.48-1.548-.48-.9 0-1.62.3-2.184.888-.564.588-.84 1.332-.84 2.208zm1.32-.6c.084-.768.696-1.404 1.644-1.404.48 0 .852.144 1.128.432.276.288.408.612.42.972h-3.192zm9.363-2.496c-.912 0-1.608.324-2.1.96v-.804h-1.296v8.292h1.296v-3.204c.492.636 1.188.96 2.1.96.828 0 1.512-.3 2.052-.9.54-.6.804-1.332.804-2.196 0-.876-.264-1.608-.804-2.208-.54-.6-1.224-.9-2.052-.9zm-.348 1.14c.54 0 .996.192 1.356.576.36.372.54.84.54 1.392 0 .54-.18 1.008-.54 1.392a1.82 1.82 0 01-1.356.564 2.029 2.029 0 01-1.752-1.044v-1.824a1.992 1.992 0 011.752-1.056zM2.22 116v-4.752h2.904V116H6.42v-5.892H.924V116H2.22zm8.872-.984c-.564 0-1.02-.192-1.392-.564-.372-.372-.552-.84-.552-1.404 0-.552.18-1.02.552-1.392a1.9 1.9 0 011.392-.564c.552 0 1.008.192 1.38.564.372.372.552.84.552 1.392 0 .564-.18 1.032-.552 1.404a1.873 1.873 0 01-1.38.564zm0 1.14c.936 0 1.704-.3 2.316-.9a2.998 2.998 0 00.912-2.208c0-.864-.3-1.596-.912-2.196-.612-.6-1.38-.9-2.316-.9-.948 0-1.716.3-2.328.9-.612.6-.912 1.332-.912 2.196 0 .876.3 1.608.912 2.208.612.6 1.38.9 2.328.9zm11.17-6.204c-.912 0-1.608.324-2.1.96v-.804h-1.296v8.292h1.296v-3.204c.492.636 1.188.96 2.1.96.828 0 1.512-.3 2.052-.9.54-.6.804-1.332.804-2.196 0-.876-.264-1.608-.804-2.208-.54-.6-1.224-.9-2.052-.9zm-.348 1.14c.54 0 .996.192 1.356.576.36.372.54.84.54 1.392 0 .54-.18 1.008-.54 1.392a1.82 1.82 0 01-1.356.564 2.029 2.029 0 01-1.752-1.044v-1.824a1.992 1.992 0 011.752-1.056zm4.207 1.956c0 .924.312 1.668.936 2.244.636.576 1.404.864 2.316.864.912 0 1.632-.192 2.172-.576v-1.092a3.644 3.644 0 01-1.896.528c-1.2 0-2.064-.588-2.22-1.584h4.512v-.336c0-1.068-.372-2.04-1.248-2.664-.432-.324-.948-.48-1.548-.48-.9 0-1.62.3-2.184.888-.564.588-.84 1.332-.84 2.208zm1.32-.6c.084-.768.696-1.404 1.644-1.404.48 0 .852.144 1.128.432.276.288.408.612.42.972h-3.192zm11.499 2.544c-.287 0-.491-.216-.491-.588v-2.196c0-1.44-1.093-2.256-2.724-2.256-.852 0-1.56.168-2.148.504v1.14a3.49 3.49 0 011.86-.528c1.152 0 1.727.432 1.727 1.284v.324c-.54-.3-1.175-.456-1.883-.456-.66 0-1.224.168-1.68.516-.456.336-.684.816-.684 1.44 0 .612.203 1.104.623 1.452.42.348.949.528 1.584.528.912 0 1.633-.3 2.172-.912.157.564.577.84 1.236.84.325 0 .577-.06.757-.192v-.984a.68.68 0 01-.349.084zm-1.776-.66c-.372.396-1.008.708-1.68.708-.756 0-1.272-.312-1.272-.936 0-.576.516-.912 1.38-.912.553 0 1.08.144 1.572.42v.72zm7.676-3.084V116h1.297v-5.892h-4.752l-.036 1.92c-.036 2.052-.336 2.868-1.188 2.868a1 1 0 01-.264-.036v1.116c.12.036.252.048.408.048 1.188-.048 1.764-.696 2.028-1.74.204-.756.252-1.32.264-2.184l.024-.852h2.22zM49.199 116l3.18-4.008V116h1.296v-5.892h-1.212l-3.18 3.996v-3.996h-1.296V116h1.212zm8.303.156c.852 0 1.548-.168 2.064-.516s.78-.804.78-1.356c0-.732-.372-1.212-1.128-1.452.6-.216.9-.648.9-1.296 0-.468-.24-.84-.708-1.14-.468-.3-1.068-.444-1.776-.444-.864 0-1.596.132-2.208.408v1.14c.66-.288 1.308-.432 1.932-.432.948 0 1.428.228 1.428.684 0 .432-.372.648-1.104.648H56.59v1.044h1.092c.864 0 1.296.252 1.296.744 0 .54-.636.852-1.656.852a4.76 4.76 0 01-2.064-.48v1.176c.588.276 1.332.42 2.244.42zm9.892-1.164c-.288 0-.492-.216-.492-.588v-2.196c0-1.44-1.092-2.256-2.724-2.256-.852 0-1.56.168-2.148.504v1.14a3.49 3.49 0 011.86-.528c1.152 0 1.728.432 1.728 1.284v.324c-.54-.3-1.176-.456-1.884-.456-.66 0-1.224.168-1.68.516-.456.336-.684.816-.684 1.44 0 .612.204 1.104.624 1.452.42.348.948.528 1.584.528.912 0 1.632-.3 2.172-.912.156.564.576.84 1.236.84.324 0 .576-.06.756-.192v-.984a.68.68 0 01-.348.084zm-1.776-.66c-.372.396-1.008.708-1.68.708-.756 0-1.272-.312-1.272-.936 0-.576.516-.912 1.38-.912.552 0 1.08.144 1.572.42v.72zm9.932 3.288v-2.76h-1.032v-4.752h-1.296v4.752h-2.904v-4.752h-1.296V116h5.268v1.62h1.26zm2.512-1.62l3.18-4.008V116h1.296v-5.892h-1.212l-3.18 3.996v-3.996H76.85V116h1.212zm7.535 0l3.18-4.008V116h1.296v-5.892h-1.212l-3.18 3.996v-3.996h-1.296V116h1.212zm10.737 0v-4.752h2.903V116h1.296v-5.892h-5.496V116h1.296zm9.447-6.048c-.912 0-1.608.324-2.1.96v-.804h-1.296v8.292h1.296v-3.204c.492.636 1.188.96 2.1.96.828 0 1.512-.3 2.052-.9.54-.6.804-1.332.804-2.196 0-.876-.264-1.608-.804-2.208-.54-.6-1.224-.9-2.052-.9zm-.348 1.14c.54 0 .996.192 1.356.576.36.372.54.84.54 1.392 0 .54-.18 1.008-.54 1.392a1.82 1.82 0 01-1.356.564 2.029 2.029 0 01-1.752-1.044v-1.824a1.992 1.992 0 011.752-1.056zm7.448 3.924c-.564 0-1.02-.192-1.392-.564-.372-.372-.552-.84-.552-1.404 0-.552.18-1.02.552-1.392a1.9 1.9 0 011.392-.564c.552 0 1.008.192 1.38.564.372.372.552.84.552 1.392 0 .564-.18 1.032-.552 1.404a1.873 1.873 0 01-1.38.564zm0 1.14c.936 0 1.704-.3 2.316-.9a2.998 2.998 0 00.912-2.208c0-.864-.3-1.596-.912-2.196-.612-.6-1.38-.9-2.316-.9-.948 0-1.716.3-2.328.9-.612.6-.912 1.332-.912 2.196 0 .876.3 1.608.912 2.208.612.6 1.38.9 2.328.9zm4.236-3.108c0 .924.312 1.668.936 2.244.636.576 1.404.864 2.316.864.912 0 1.632-.192 2.172-.576v-1.092a3.644 3.644 0 01-1.896.528c-1.2 0-2.064-.588-2.22-1.584h4.512v-.336c0-1.068-.372-2.04-1.248-2.664-.432-.324-.948-.48-1.548-.48-.9 0-1.62.3-2.184.888-.564.588-.84 1.332-.84 2.208zm1.32-.6c.084-.768.696-1.404 1.644-1.404.48 0 .852.144 1.128.432.276.288.408.612.42.972h-3.192zm7.264 3.552v-2.664l2.628 2.664h1.776l-3.216-3.252 2.796-2.64h-1.656l-2.328 2.232v-2.232h-1.296V116h1.296zm8.058 0v-4.752h1.98v-1.14h-5.268v1.14h1.992V116h1.296zm5.876-.984c-.564 0-1.02-.192-1.392-.564-.372-.372-.552-.84-.552-1.404 0-.552.18-1.02.552-1.392a1.9 1.9 0 011.392-.564c.552 0 1.008.192 1.38.564.372.372.552.84.552 1.392 0 .564-.18 1.032-.552 1.404a1.873 1.873 0 01-1.38.564zm0 1.14c.936 0 1.704-.3 2.316-.9a2.998 2.998 0 00.912-2.208c0-.864-.3-1.596-.912-2.196-.612-.6-1.38-.9-2.316-.9-.948 0-1.716.3-2.328.9-.612.6-.912 1.332-.912 2.196 0 .876.3 1.608.912 2.208.612.6 1.38.9 2.328.9zm8.052-.156c1.308 0 2.064-.612 2.064-1.608 0-.78-.384-1.284-1.152-1.512.444-.204.756-.684.756-1.272 0-.864-.66-1.5-1.848-1.5h-3.216V116h3.396zm-2.1-2.496h1.872c.612 0 .972.264.972.732 0 .444-.36.72-.972.72h-1.872v-1.452zm0-2.352h1.608c.588 0 .888.216.888.66 0 .396-.324.648-.888.648h-1.608v-1.308z" fill="#fff"/><path d="M77 0H0v77h77V0z" fill="#045796"/><path d="M66.596 29.51H53.295v3.563h13.3V29.51zM29.82 42.16l3.33-4.831L15.314 11.4h-3.512v4.572l4.515 6.507 13.504 19.68zM44.34 11.4L31.16 30.577l3.316 4.838 7.81-11.38v24.898h5.47V11.4H44.34zM11.8 19.807v29.125h5.47V27.786l-5.47-7.98zM52.91 54.97h-1.606v11.015h6.8v-1.57H52.91V54.97zm13.574 0h-7.236v1.57h7.236v-1.57zm-26.398.982c-.877-.87-2.307-.982-2.86-.975H33.93v11h1.598v-9.409h1.732c.19 0 2.055-.02 2.055 1.41 0 1.718-1.753 1.675-1.915 1.675h-1.178v1.6h1.143c.12 0 1.662.041 2.63-.926.596-.596.918-1.368.918-2.342-.007-.828-.26-1.473-.827-2.033zm23.579 1.268H62.06v8.765h1.605v-8.764zm-20.067-2.25h-1.606v10.994h1.606V54.97zm-26.475 9.023l.974-1.416-5.23-7.607h-1.038v1.339l1.332 1.907 3.962 5.777zm4.263-9.023l-3.87 5.623.967 1.423 2.293-3.344v7.313h1.606V54.97h-.996zm-9.556 2.468v8.546h1.605V59.78l-1.606-2.342zm19.813 8.547h1.76L28.481 54.97h-.806l-.47 1.093 4.438 9.922zm-2.826-4.719h-2.089l1.017-2.35-.89-2.025-3.934 9.093h1.774l1.36-3.148h3.47l-.707-1.57zm17.775-.848l3.73-5.448H48.38l-3.218 4.697h-.932v1.571h.981l3.232 4.726h1.95l-3.8-5.546z" fill="#fff"/><path d="M58.112 54.97h-4.509v1.57h4.509v-1.57zm0 4.697h-4.509v1.57h4.509v-1.57zm7.993-44.943a5.761 5.761 0 00-1.367-1.999c-.582-.54-1.283-.96-2.104-1.262a7.852 7.852 0 00-2.671-.448c-.94 0-1.816.14-2.63.427a6.145 6.145 0 00-2.117 1.262 5.91 5.91 0 00-1.416 2.013c-.337.785-.505 1.675-.505 2.678h3.996c0-.526.078-.968.232-1.325a2.24 2.24 0 011.48-1.325 3.47 3.47 0 01.967-.14c.862 0 1.514.252 1.963.75.449.505.673 1.164.673 1.984 0 .512-.084.96-.26 1.353-.175.393-.462.82-.876 1.29l-6.366 7.397h4.852l4.305-4.999c.371-.427.701-.834.996-1.213.294-.378.54-.764.736-1.15.196-.385.343-.792.448-1.213.106-.42.155-.897.155-1.43 0-.974-.169-1.865-.491-2.65z" fill="#fff"/><path d="M77 0H0v77h77V0z" fill="#0A5896"/><path d="M66.596 29.51H53.295v3.563h13.3V29.51zM29.82 42.16l3.33-4.831L15.314 11.4h-3.512v4.572l4.515 6.507 13.504 19.68zM44.34 11.4L31.16 30.577l3.316 4.838 7.81-11.38v24.898h5.47V11.4H44.34zM11.8 19.807v29.125h5.47V27.786l-5.47-7.98zM52.91 54.97h-1.606v11.015h6.8v-1.57H52.91V54.97zm13.574 0h-7.236v1.57h7.236v-1.57zm-26.398.982c-.877-.87-2.307-.982-2.86-.975H33.93v11h1.598v-9.409h1.732c.19 0 2.055-.02 2.055 1.41 0 1.718-1.753 1.675-1.915 1.675h-1.178v1.6h1.143c.12 0 1.662.041 2.63-.926.596-.596.918-1.368.918-2.342-.007-.828-.26-1.473-.827-2.033zm23.579 1.268H62.06v8.765h1.605v-8.764zm-20.067-2.25h-1.606v10.994h1.606V54.97zm-26.475 9.023l.974-1.416-5.23-7.607h-1.038v1.339l1.332 1.907 3.962 5.777zm4.263-9.023l-3.87 5.623.967 1.423 2.293-3.344v7.313h1.606V54.97h-.996zm-9.556 2.468v8.546h1.605V59.78l-1.606-2.342zm19.813 8.547h1.76L28.481 54.97h-.806l-.47 1.093 4.438 9.922zm-2.826-4.719h-2.089l1.017-2.35-.89-2.025-3.934 9.093h1.774l1.36-3.148h3.47l-.707-1.57zm17.775-.848l3.73-5.448H48.38l-3.218 4.697h-.932v1.571h.981l3.232 4.726h1.95l-3.8-5.546z" fill="#fff"/><path d="M58.112 54.97h-4.509v1.57h4.509v-1.57zm0 4.697h-4.509v1.57h4.509v-1.57zm7.993-44.943a5.761 5.761 0 00-1.367-1.999c-.582-.54-1.283-.96-2.104-1.262a7.852 7.852 0 00-2.671-.448c-.94 0-1.816.14-2.63.427a6.145 6.145 0 00-2.117 1.262 5.91 5.91 0 00-1.416 2.013c-.337.785-.505 1.675-.505 2.678h3.996c0-.526.078-.968.232-1.325a2.24 2.24 0 011.48-1.325 3.47 3.47 0 01.967-.14c.862 0 1.514.252 1.963.75.449.505.673 1.164.673 1.984 0 .512-.084.96-.26 1.353-.175.393-.462.82-.876 1.29l-6.366 7.397h4.852l4.305-4.999c.371-.427.701-.834.996-1.213.294-.378.54-.764.736-1.15.196-.385.343-.792.448-1.213.106-.42.155-.897.155-1.43 0-.974-.169-1.865-.491-2.65z" fill="#fff"/></svg>