<svg width="842" height="880" fill="none" xmlns="http://www.w3.org/2000/svg"><path fill-rule="evenodd" clip-rule="evenodd" d="M.124 440.15v1.99L115.57 562.497l-14.187 14.776L.225 471.952l-.101.096v2.686l99.872 103.983-14.24 14.832L.224 504.547l-.101.097v2.685l84.245 87.663-14.272 14.864L.225 537.143l-.101.097v2.685L68.711 611.3l-14.21 14.799L.224 569.715l-.1.097v2.683l52.99 55.048L38.8 642.451.224 602.335l-.1.096v2.685l37.29 38.779-14.316 14.909L.226 634.932l-.102.097v2.688l21.588 22.531L.124 682.731v2.501l.193.186 116.638-121.475 14.17 14.792L.124 715.302v2.548l.17.163L132.51 580.18l14.286 14.913L.124 747.922v2.502l.193.185L148.18 596.538l14.237 14.861L.124 780.494v2.548l.17.163 163.508-170.36 14.337 14.966L.124 813.092v2.546l.17.163 179.23-186.545 14.156 14.777L.124 845.71v2.501l.193.186 194.748-202.918 14.022 14.637L.124 877.772v2.203h.658l209.69-218.414 93.307 97.382 22.566 23.525-14.261 14.942-101.823-106.096L29.185 879.975h2.772l178.304-185.772L310.7 798.856l-14.173 14.766-86.267-89.711L60.906 879.597l-.345.378h2.754l146.947-153.177 84.879 88.268-14.191 14.784-70.691-73.342L92.182 879.591l-.353.384h2.756l115.678-120.582 69.301 71.901-14.403 15.004-54.9-57.196-86.798 90.484-.401.389h2.799l84.4-87.984 53.514 55.751-13.984 14.568-39.559-40.607-55.523 57.883-.387.389h2.785l53.136-55.394 38.162 39.172-14.808 15.427-23.328-24.895-24.261 25.289-.382.401h2.769l21.857-22.784 21.349 22.784h4.006l77.201-80.426 14.922-15.636 14.286 14.893-77.943 81.169h2.773l76.555-79.724 15.15 15.794-63.194 63.93h2.813l61.766-62.486 13.364 13.933-46.67 48.553h2.775l45.281-47.109 14.222 14.827-30.907 32.215-.067.067h2.774l29.586-30.837 14.282 14.89-15.064 15.694-.253.253h2.783l13.92-14.502 13.91 14.502h.978v-1.87L305.454 757.799l14.197-14.79 101.131 105.342.068-.065v-2.752l-99.813-103.969 14.278-14.874 85.444 89.064.091-.088v-2.706l-84.148-87.714 14.178-14.771 69.903 72.684.067-.065v-2.751l-68.584-71.312 14.349-14.948 54.167 56.479.068-.066v-2.753l-52.849-55.104 14.225-14.82 38.556 40.125.068-.065v-2.752l-37.238-38.752 14.304-14.901 22.865 23.895.069-.066v-2.754l-21.548-22.519 21.548-22.448v-2.567l-.16-.154-116.621 121.492-14.274-14.897L420.85 605.01v-2.613l-.137-.131L288.41 740.012l-14.233-14.854L420.85 572.391v-2.567l-.16-.154-147.897 154.042-14.2-14.819L420.85 539.82v-2.614l-.137-.132-163.505 170.373-14.35-14.976L420.85 507.222v-2.612l-.137-.132-179.24 186.547-14.234-14.855L420.85 474.603v-2.567l-.16-.154-194.836 202.842-13.997-14.607L420.85 442.01v-1.86h-.988l-209.39 218.521-93.244-97.334-22.59-23.551 14.324-14.924 101.784 106.103 180.625-188.286.441-.529h-2.705L210.746 626.076 110.348 521.418l14.251-14.848 86.147 89.799 149.351-155.682.495-.537h-2.752L210.746 593.48l-84.761-88.354 29.89-31.143 54.871 57.195 86.791-90.476.444-.552h-2.687l-84.548 88.139-53.485-55.75 14.248-14.845 39.237 40.888 55.524-57.873.5-.559h-2.735l-53.289 55.543-37.851-39.443 14.256-14.854 23.595 24.59 24.242-25.269.519-.567h-3.868l.578.567-21.471 22.38-22.018-22.947h-3.154l-92.321 96.191-14.254-14.859 77.559-80.822.444-.51h-2.727l-76.661 79.887-14.375-14.986 61.807-64.31.565-.591h-2.77l-60.987 63.457-14.112-14.713 46.253-48.201.496-.543h-2.747l-45.388 47.3-14.201-14.806 30.624-31.936.506-.558h-2.741L30.769 471.2l-14.464-15.08 14.798-15.394.5-.576H28.88l-13.96 14.526L.987 440.15H.124zm326.446 0L210.746 560.885l-68.93-71.873-1.443 1.384 70.373 73.378 118.074-123.08.512-.544h-2.762z" fill="#1C386C"/><path fill-rule="evenodd" clip-rule="evenodd" d="M420.85 440.15v1.99l115.445 120.357-14.187 14.776L420.95 471.952l-.1.096v2.686l99.872 103.983-14.241 14.832-85.531-89.002-.1.097v2.685l84.244 87.663-14.271 14.864-69.873-72.713-.1.097v2.685l68.587 71.375-14.21 14.799-54.277-56.384-.1.097v2.683l52.99 55.048-14.314 14.908-38.576-40.116-.1.096v2.685l37.289 38.779-14.315 14.909-22.873-23.872-.101.097v2.688l21.588 22.531-21.588 22.483v2.501l.193.186L537.68 563.943l14.171 14.792L420.85 715.302v2.548l.17.163L553.236 580.18l14.285 14.913L420.85 747.922v2.502l.193.185 147.863-154.071 14.237 14.861L420.85 780.494v2.548l.17.163 163.507-170.36 14.337 14.966L420.85 813.092v2.546l.17.163 179.229-186.545 14.157 14.777L420.85 845.71v2.501l.193.186L615.79 645.479l14.022 14.637L420.85 877.772v2.203h.658l209.689-218.414 93.308 97.382 22.565 23.525-14.26 14.942-101.824-106.096-181.075 188.661h2.772l178.304-185.772 100.439 104.653-14.174 14.766-86.266-89.711-149.354 155.686-.346.378h2.755l146.946-153.177 84.879 88.268-14.191 14.784-70.69-73.342-118.078 123.083-.352.384h2.756l115.677-120.582 69.301 71.901-14.402 15.004-54.901-57.196-86.797 90.484-.401.389h2.799l84.4-87.984 53.514 55.751-13.985 14.568-39.558-40.607-55.524 57.883-.387.389h2.785l53.137-55.394 38.162 39.172-14.809 15.427-23.327-24.895-24.262 25.289-.381.401h2.769l21.857-22.784 21.348 22.784h4.006l77.201-80.426 14.923-15.636 14.285 14.893-77.942 81.169h2.773l76.555-79.724 15.15 15.794-63.194 63.93h2.812l61.767-62.486 13.364 13.933-46.67 48.553h2.774l45.281-47.109 14.223 14.827-30.907 32.215-.068.067h2.775l29.585-30.837 14.283 14.89-15.064 15.694-.253.253h2.783l13.92-14.502 13.91 14.502h.978v-1.87L726.18 757.799l14.197-14.79 101.131 105.342.068-.065v-2.752l-99.813-103.969 14.278-14.874 85.443 89.064.092-.088v-2.706l-84.149-87.714 14.178-14.771 69.903 72.684.068-.065v-2.751l-68.585-71.312 14.349-14.948 54.167 56.479.069-.066v-2.753l-52.849-55.104 14.225-14.82 38.556 40.125.068-.065v-2.752l-37.238-38.752 14.303-14.901 22.866 23.895.069-.066v-2.754l-21.548-22.519 21.548-22.448v-2.567l-.161-.154-116.621 121.492-14.273-14.897L841.576 605.01v-2.613l-.137-.131-132.303 137.746-14.233-14.854 146.673-152.767v-2.567l-.161-.154-147.897 154.042-14.2-14.819L841.576 539.82v-2.614l-.138-.132-163.504 170.373-14.351-14.976 177.993-185.249v-2.612l-.137-.132-179.24 186.547-14.235-14.855 193.612-201.567v-2.567l-.161-.154-194.836 202.842-13.996-14.607L841.576 442.01v-1.86h-.988l-209.39 218.521-93.245-97.334-22.589-23.551 14.323-14.924 101.785 106.103 180.625-188.286.44-.529h-2.704L631.472 626.076 531.074 521.418l14.25-14.848 86.148 89.799 149.351-155.682.495-.537h-2.752L631.472 593.48l-84.762-88.354 29.89-31.143 54.872 57.195 86.79-90.476.445-.552h-2.687l-84.548 88.139-53.486-55.75 14.248-14.845 39.238 40.888 55.524-57.873.5-.559h-2.736l-53.288 55.543-37.852-39.443 14.257-14.854 23.595 24.59 24.242-25.269.519-.567h-3.868l.577.567-21.47 22.38-22.019-22.947H606.3l-92.322 96.191-14.253-14.859 77.558-80.822.445-.51h-2.727l-76.662 79.887-14.374-14.986 61.807-64.31.564-.591h-2.77l-60.987 63.457-14.112-14.713 46.254-48.201.496-.543h-2.748l-45.387 47.3-14.202-14.806 30.625-31.936.506-.558h-2.742l-29.774 31.05-14.464-15.08 14.797-15.394.5-.576h-2.721l-13.962 14.526-13.933-14.526h-.862zm326.445 0L631.472 560.885l-68.93-71.873-1.444 1.384 70.374 73.378 118.073-123.08.513-.544h-2.763z" fill="#1C386C"/><path fill-rule="evenodd" clip-rule="evenodd" d="M.124.326v1.99L115.57 122.673l-14.187 14.776L.225 32.127l-.101.097v2.686l99.872 103.982-14.24 14.832-85.531-89-.101.096v2.685l84.245 87.663-14.272 14.864L.225 97.319l-.101.097v2.685l68.587 71.374-14.21 14.8L.224 129.891l-.1.096v2.684l52.99 55.047L38.8 202.627.224 162.51l-.1.097v2.685l37.29 38.779-14.316 14.909L.226 195.108l-.102.097v2.687l21.588 22.532L.124 242.907v2.501l.193.186 116.638-121.476 14.17 14.793L.124 275.478v2.547l.17.164L132.51 140.356l14.286 14.912L.124 308.098v2.501l.193.186L148.18 156.714l14.237 14.861L.124 340.67v2.548l.17.163L163.802 173.02l14.337 14.966L.124 373.267v2.547l.17.163 179.23-186.545 14.156 14.777L.124 405.886v2.501l.193.186 194.748-202.918 14.022 14.637L.124 437.948v2.202h.658l209.69-218.413 93.307 97.381 22.566 23.526-14.261 14.942L210.261 251.49 29.185 440.15h2.772l178.304-185.771L310.7 359.032l-14.173 14.766-86.267-89.711L60.906 439.773l-.345.377h2.754l146.947-153.176 84.879 88.268-14.191 14.783-70.691-73.342L92.182 439.767l-.353.383h2.756l115.678-120.581 69.301 71.9-14.403 15.004-54.9-57.195-86.798 90.483-.401.39h2.799l84.4-87.985 53.514 55.751-13.984 14.569-39.559-40.607-55.523 57.882-.387.39h2.785l53.136-55.394 38.162 39.172-14.808 15.427-23.328-24.896-24.261 25.29-.382.401h2.769l21.857-22.784 21.349 22.784h4.006l77.201-80.426 14.922-15.636 14.286 14.893-77.943 81.169h2.773l76.555-79.725 15.15 15.795-63.194 63.93h2.813l61.766-62.486 13.364 13.932-46.67 48.554h2.775l45.281-47.109 14.222 14.827-30.907 32.214-.067.068h2.774l29.586-30.837 14.282 14.89-15.064 15.694-.253.253h2.783l13.92-14.502 13.91 14.502h.978v-1.87L305.454 317.975l14.197-14.79 101.131 105.342.068-.066v-2.752l-99.813-103.968 14.278-14.875 85.444 89.064.091-.087v-2.706l-84.148-87.715 14.178-14.77 69.903 72.684.067-.065v-2.751l-68.584-71.312 14.349-14.949 54.167 56.48.068-.066v-2.753l-52.849-55.105 14.225-14.819 38.556 40.124.068-.064v-2.752l-37.238-38.752 14.304-14.901 22.865 23.895.069-.066v-2.755l-21.548-22.518 21.548-22.448v-2.567l-.16-.154L304.069 316.53l-14.274-14.897L420.85 165.186v-2.613l-.137-.131L288.41 300.188l-14.233-14.854L420.85 132.567V130l-.16-.154-147.897 154.042-14.2-14.819L420.85 99.996v-2.614l-.137-.132-163.505 170.373-14.35-14.976L420.85 67.398v-2.613l-.137-.131L241.473 251.2l-14.234-14.856L420.85 34.779v-2.567l-.16-.154L225.854 234.9l-13.997-14.608L420.85 2.186V.326h-.988l-209.39 218.521-93.244-97.334-22.59-23.551 14.324-14.924L210.746 189.14 391.371.855l.441-.529h-2.705L210.746 186.252 110.348 81.594l14.251-14.848 86.147 89.799L360.097.862l.495-.536h-2.752l-147.094 153.33-84.761-88.355 29.89-31.142 54.871 57.195L297.537.877l.444-.55h-2.687l-84.548 88.138-53.485-55.75 14.248-14.845 39.237 40.888L266.27.885l.5-.559h-2.735L210.746 55.87l-37.851-39.444 14.256-14.853 23.595 24.59L234.988.892l.519-.566h-3.868l.578.567-21.471 22.38L188.728.326h-3.154L93.253 96.517l-14.254-14.86L156.558.837l.444-.51h-2.727L77.614 80.213 63.239 65.227 125.046.917l.565-.59h-2.77L61.854 63.781 47.741 49.07 93.995.868l.496-.542h-2.747l-45.388 47.3L32.155 32.82 62.779.884l.506-.558h-2.741l-29.775 31.05-14.464-15.08L31.103.901l.5-.575H28.88L14.92 14.852.987.326H.124zm326.446 0L210.746 121.06l-68.93-71.872-1.443 1.384 70.373 73.378L328.82.87l.512-.544h-2.762z" fill="#1C386C"/><path fill-rule="evenodd" clip-rule="evenodd" d="M420.85.326v1.99l115.445 120.357-14.187 14.776L420.95 32.127l-.1.097v2.686l99.872 103.982-14.241 14.832-85.531-89-.1.096v2.685l84.244 87.663-14.271 14.864-69.873-72.713-.1.097v2.685l68.587 71.374-14.21 14.8-54.277-56.384-.1.096v2.684l52.99 55.047-14.314 14.909-38.576-40.117-.1.097v2.685l37.289 38.779-14.315 14.909-22.873-23.872-.101.097v2.687l21.588 22.532-21.588 22.483v2.501l.193.186L537.68 124.118l14.171 14.793L420.85 275.478v2.547l.17.164 132.216-137.833 14.285 14.912-146.671 152.83v2.501l.193.186 147.863-154.071 14.237 14.861L420.85 340.67v2.548l.17.163L584.527 173.02l14.337 14.966L420.85 373.267v2.547l.17.163 179.229-186.545 14.157 14.777L420.85 405.886v2.501l.193.186L615.79 205.655l14.022 14.637L420.85 437.948v2.202h.658l209.689-218.413 93.308 97.381 22.565 23.526-14.26 14.942L630.986 251.49 449.911 440.15h2.772l178.304-185.771 100.439 104.653-14.174 14.766-86.266-89.711-149.354 155.686-.346.377h2.755l146.946-153.176 84.879 88.268-14.191 14.783-70.69-73.342-118.078 123.084-.352.383h2.756l115.677-120.581 69.301 71.9-14.402 15.004-54.901-57.195-86.797 90.483-.401.39h2.799l84.4-87.985 53.514 55.751-13.985 14.569-39.558-40.607-55.524 57.882-.387.39h2.785l53.137-55.394 38.162 39.172-14.809 15.427-23.327-24.896-24.262 25.29-.381.401h2.769l21.857-22.784 21.348 22.784h4.006l77.201-80.426 14.923-15.636 14.285 14.893-77.942 81.169h2.773l76.555-79.725 15.15 15.795-63.194 63.93h2.812l61.767-62.486 13.364 13.932-46.67 48.554h2.774l45.281-47.109 14.223 14.827-30.907 32.214-.068.068h2.775l29.585-30.837 14.283 14.89-15.064 15.694-.253.253h2.783l13.92-14.502 13.91 14.502h.978v-1.87L726.18 317.975l14.197-14.79 101.131 105.342.068-.066v-2.752l-99.813-103.968 14.278-14.875 85.443 89.064.092-.087v-2.706l-84.149-87.715 14.178-14.77 69.903 72.684.068-.065v-2.751l-68.585-71.312 14.349-14.949 54.167 56.48.069-.066v-2.753l-52.849-55.105 14.225-14.819 38.556 40.124.068-.064v-2.752l-37.238-38.752 14.303-14.901 22.866 23.895.069-.066v-2.755l-21.548-22.518 21.548-22.448v-2.567l-.161-.154L724.794 316.53l-14.273-14.897 131.055-136.447v-2.613l-.137-.131-132.303 137.746-14.233-14.854 146.673-152.767V130l-.161-.154-147.897 154.042-14.2-14.819L841.576 99.996v-2.614l-.138-.132-163.504 170.373-14.351-14.976L841.576 67.398v-2.613l-.137-.131L662.199 251.2l-14.235-14.856L841.576 34.779v-2.567l-.161-.154L646.579 234.9l-13.996-14.608L841.576 2.186V.326h-.988l-209.39 218.521-93.245-97.334-22.589-23.551 14.323-14.924L631.472 189.14 812.097.855l.44-.529h-2.704L631.472 186.252 531.074 81.594l14.25-14.848 86.148 89.799L780.823.862l.495-.536h-2.752l-147.094 153.33-84.762-88.355L576.6 34.16l54.872 57.195L718.262.877l.445-.55h-2.687l-84.548 88.138-53.486-55.75 14.248-14.845 39.238 40.888L686.996.885l.5-.559h-2.736L631.472 55.87 593.62 16.425l14.257-14.853 23.595 24.59L655.714.892l.519-.566h-3.868l.577.567-21.47 22.38L609.453.326H606.3l-92.322 96.191-14.253-14.86L577.283.837l.445-.51h-2.727l-76.662 79.887-14.374-14.986L545.772.917l.564-.59h-2.77l-60.987 63.455-14.112-14.712L514.721.868l.496-.542h-2.748l-45.387 47.3L452.88 32.82 483.505.884l.506-.558h-2.742l-29.774 31.05-14.464-15.08L451.828.901l.5-.575h-2.721l-13.962 14.526L421.712.326h-.862zm326.445 0L631.472 121.06l-68.93-71.872-1.444 1.384 70.374 73.378L749.545.87l.513-.544h-2.763z" fill="#1C386C"/></svg>