<svg width="30" height="30" viewBox="0 0 30 30" fill="none" xmlns="http://www.w3.org/2000/svg">
<circle cx="15" cy="15" r="15" fill="white"/>
<path fill-rule="evenodd" clip-rule="evenodd" d="M15.2534 8.3457H14.7457C13.2487 8.3457 12.2207 8.34699 11.4252 8.41518C10.6486 8.48176 10.2336 8.60368 9.93371 8.76548C9.33273 9.08975 8.83975 9.58273 8.51548 10.1837C8.35368 10.4836 8.23176 10.8986 8.16518 11.6752C8.09699 12.4707 8.0957 13.4987 8.0957 14.9957V15.5034C8.0957 17.0004 8.09699 18.0284 8.16518 18.8238C8.23176 19.6004 8.35368 20.0155 8.51548 20.3154C8.83975 20.9163 9.33273 21.4093 9.93371 21.7336C10.2336 21.8954 10.6486 22.0173 11.4252 22.0839C12.2207 22.1521 13.2487 22.1534 14.7457 22.1534H15.2534C16.7504 22.1534 17.7784 22.1521 18.5738 22.0839C19.3504 22.0173 19.7655 21.8954 20.0654 21.7336C20.6663 21.4093 21.1593 20.9163 21.4836 20.3154C21.6454 20.0155 21.7673 19.6004 21.8339 18.8238C21.9021 18.0284 21.9034 17.0004 21.9034 15.5034V14.9957C21.9034 13.4987 21.9021 12.4707 21.8339 11.6752C21.7673 10.8986 21.6454 10.4836 21.4836 10.1837C21.1593 9.58273 20.6663 9.08975 20.0654 8.76548C19.7655 8.60368 19.3504 8.48176 18.5738 8.41518C17.7784 8.34699 16.7504 8.3457 15.2534 8.3457ZM7.19539 9.47142C6.5957 10.5828 6.5957 12.0538 6.5957 14.9957V15.5034C6.5957 18.4453 6.5957 19.9162 7.19539 21.0276C7.65862 21.8862 8.36289 22.5904 9.22142 23.0537C10.3328 23.6534 11.8038 23.6534 14.7457 23.6534H15.2534C18.1953 23.6534 19.6662 23.6534 20.7776 23.0537C21.6362 22.5904 22.3404 21.8862 22.8037 21.0276C23.4034 19.9162 23.4034 18.4453 23.4034 15.5034V14.9957C23.4034 12.0538 23.4034 10.5828 22.8037 9.47142C22.3404 8.61289 21.6362 7.90862 20.7776 7.44539C19.6662 6.8457 18.1953 6.8457 15.2534 6.8457H14.7457C11.8038 6.8457 10.3328 6.8457 9.22142 7.44539C8.36289 7.90862 7.65862 8.61289 7.19539 9.47142Z" fill="#1B2E50"/>
<path fill-rule="evenodd" clip-rule="evenodd" d="M14.9989 18.8074C16.8321 18.8074 18.3182 17.3214 18.3182 15.4882C18.3182 13.655 16.8321 12.1689 14.9989 12.1689C13.1658 12.1689 11.6797 13.655 11.6797 15.4882C11.6797 17.3214 13.1658 18.8074 14.9989 18.8074ZM14.9989 20.0574C17.5225 20.0574 19.5682 18.0117 19.5682 15.4882C19.5682 12.9647 17.5225 10.9189 14.9989 10.9189C12.4754 10.9189 10.4297 12.9647 10.4297 15.4882C10.4297 18.0117 12.4754 20.0574 14.9989 20.0574Z" fill="#1B2E50"/>
<path d="M20.7282 10.2352C20.7282 10.6126 20.4222 10.9186 20.0448 10.9186C19.6673 10.9186 19.3613 10.6126 19.3613 10.2352C19.3613 9.85774 19.6673 9.55176 20.0448 9.55176C20.4222 9.55176 20.7282 9.85774 20.7282 10.2352Z" fill="#1B2E50"/>
</svg>
