<svg width="30" height="30" viewBox="0 0 30 30" fill="none" xmlns="http://www.w3.org/2000/svg">
<circle cx="15" cy="15" r="15" fill="white"/>
<path fill-rule="evenodd" clip-rule="evenodd" d="M15.0001 24.304C20.1385 24.304 24.304 20.1385 24.304 15.0001C24.304 9.86176 20.1385 5.69629 15.0001 5.69629C9.86176 5.69629 5.69629 9.86176 5.69629 15.0001C5.69629 20.1385 9.86176 24.304 15.0001 24.304ZM9.5332 12.2476C9.5332 13.7601 12.6126 17.9569 13.9814 17.9566C15.0765 17.9564 15.6745 17.9565 15.8366 17.9566C15.9796 17.0535 16.0737 16.7035 16.2508 16.6416C17.0264 17.0558 17.3177 17.4097 17.8012 17.9969C17.8242 18.0248 17.8477 18.0533 17.8717 18.0824H20.6992C20.6015 16.8365 18.6281 15.489 18.6281 15.489C18.7287 15.3362 18.8447 15.1645 18.9687 14.9809C19.6288 14.0039 20.5154 12.6915 20.5154 12.1102C20.3062 12.1102 17.8717 12.0671 17.8717 12.0671C17.3773 13.5105 17.005 14.1593 16.0887 14.841L15.8985 12.1102C15.7051 11.882 13.3994 11.7387 13.2132 12.2466C13.8169 12.5708 13.9527 14.3073 13.6934 14.7326C13.3234 15.3396 12.1756 13.4599 11.7668 12.2476H9.5332Z" fill="#1B2E50"/>
</svg>
