<svg width="20" height="20" fill="none" xmlns="http://www.w3.org/2000/svg"><path d="M2.247 3.6C3.063 2.338 3.78 1.548 5.123.62c.401-.277.896-.19 1.106.177l1.91 3.33c.182.315.098.751-.201 1.05L6.637 6.48c-.264.264-.77 1.045-.65 1.348 1.149 2.911 2.453 4.165 5.326 5.323.303.123 1.089-.383 1.354-.649l1.298-1.297c.3-.3.735-.383 1.05-.202l3.338 1.916c.363.208.453.697.183 1.097-.855 1.264-1.63 2.013-2.989 2.881-.25.16-.72.083-.785.083-4.342-.01-12.7-8.366-12.606-12.6.003-.115-.07-.534.09-.781z" fill="#0F2B44"/></svg>