<svg width="7" height="9" viewBox="0 0 7 9" fill="none" xmlns="http://www.w3.org/2000/svg">
<path d="M6.5 3.70588C6.5 4.09047 6.32988 4.58725 6.01576 5.15423C5.70774 5.71022 5.29056 6.28215 4.86328 6.80352C4.43749 7.32308 4.01033 7.78198 3.68893 8.1115C3.62072 8.18144 3.5574 8.24542 3.5 8.30279C3.44261 8.24542 3.37928 8.18144 3.31107 8.1115C2.98967 7.78198 2.56251 7.32308 2.13672 6.80352C1.70944 6.28215 1.29226 5.71022 0.984239 5.15423C0.67012 4.58725 0.5 4.09047 0.5 3.70588C0.5 1.90801 1.86969 0.5 3.5 0.5C5.13031 0.5 6.5 1.90801 6.5 3.70588Z" stroke="#597DA3"/>
</svg>
