<svg width="150" height="119" viewBox="0 0 150 119" fill="none" xmlns="http://www.w3.org/2000/svg">
<path d="M3.01217 102.156C4.26017 102.156 5.30417 101.736 6.14417 100.896C6.99617 100.056 7.41617 99.0239 7.41617 97.7999C7.41617 96.5639 6.99617 95.5319 6.15617 94.7039C5.31617 93.8639 4.27217 93.4439 3.02417 93.4439C2.19617 93.4439 1.44017 93.6359 0.756172 94.0199V95.3519C1.44017 94.9079 2.20817 94.6799 3.04817 94.6799C3.76817 94.6799 4.39217 94.9079 4.92017 95.3519C5.46017 95.7959 5.78417 96.3839 5.91617 97.0919H2.40017V98.3039H5.98817C5.88017 99.0719 5.55617 99.6959 4.99217 100.188C4.44017 100.68 3.78017 100.92 3.01217 100.92C2.04017 100.92 1.22417 100.656 0.576172 100.14V101.496C1.24817 101.94 2.06417 102.156 3.01217 102.156Z" fill="white"/>
<path d="M10.3764 102V99.3359L13.0044 102H14.7804L11.5644 98.7479L14.3604 96.1079H12.7044L10.3764 98.3399V96.1079H9.08042V102H10.3764Z" fill="white"/>
<path d="M18.2623 102.156C18.9583 102.156 19.5823 102 20.1463 101.676V100.572C19.6543 100.872 19.0903 101.016 18.4663 101.016C17.8783 101.016 17.3863 100.836 16.9783 100.464C16.5823 100.092 16.3783 99.6119 16.3783 99.0479C16.3783 98.4839 16.5823 98.0159 16.9783 97.6439C17.3863 97.2719 17.8783 97.0919 18.4663 97.0919C18.9943 97.0919 19.5223 97.2239 20.0503 97.4759V96.3599C19.5343 96.0839 18.9343 95.9519 18.2743 95.9519C17.3863 95.9519 16.6303 96.2399 16.0063 96.8159C15.3943 97.3919 15.0823 98.1359 15.0823 99.0359C15.0823 99.9479 15.3943 100.692 16.0063 101.28C16.6303 101.868 17.3863 102.156 18.2623 102.156Z" fill="white"/>
<path d="M23.0327 102V99.3359L25.6607 102H27.4367L24.2207 98.7479L27.0167 96.1079H25.3607L23.0327 98.3399V96.1079H21.7367V102H23.0327Z" fill="white"/>
<path d="M32.8641 97.2479V102H34.1601V96.1079H29.4081L29.3721 98.0279C29.3361 100.08 29.0361 100.896 28.1841 100.896C28.1001 100.896 28.0041 100.884 27.9201 100.86V101.976C28.0401 102.012 28.1721 102.024 28.3281 102.024C29.5161 101.976 30.0921 101.328 30.3561 100.284C30.5601 99.5279 30.6081 98.9639 30.6201 98.0999L30.6441 97.2479H32.8641Z" fill="white"/>
<path d="M41.4341 102.156C42.3101 102.156 43.0301 101.856 43.5941 101.268C44.1581 100.668 44.4461 99.9239 44.4461 99.0479C44.4461 98.1719 44.1581 97.4399 43.5941 96.8519C43.0301 96.2519 42.3101 95.9519 41.4341 95.9519C40.6781 95.9519 40.0301 96.1799 39.4901 96.6479C38.9501 97.1159 38.6261 97.7039 38.5061 98.4239H37.3061V96.1079H36.0101V102H37.3061V99.5639H38.4821C38.5901 100.32 38.9021 100.944 39.4421 101.436C39.9821 101.916 40.6421 102.156 41.4341 102.156ZM43.1621 99.0479C43.1621 99.6119 43.0061 100.08 42.6821 100.452C42.3581 100.824 41.9501 101.016 41.4341 101.016C40.9181 101.016 40.4981 100.824 40.1741 100.452C39.8501 100.08 39.6941 99.6119 39.6941 99.0479C39.6941 98.4959 39.8501 98.0279 40.1741 97.6559C40.4981 97.2839 40.9181 97.0919 41.4341 97.0919C41.9501 97.0919 42.3581 97.2839 42.6821 97.6559C43.0061 98.0279 43.1621 98.4959 43.1621 99.0479Z" fill="white"/>
<path d="M47.5643 102.156C48.4163 102.156 49.1123 101.988 49.6283 101.64C50.1443 101.292 50.4083 100.836 50.4083 100.284C50.4083 99.5519 50.0363 99.0719 49.2803 98.8319C49.8803 98.6159 50.1803 98.1839 50.1803 97.5359C50.1803 97.0679 49.9403 96.6959 49.4723 96.3959C49.0043 96.0959 48.4043 95.9519 47.6963 95.9519C46.8323 95.9519 46.1003 96.0839 45.4883 96.3599V97.4999C46.1483 97.2119 46.7963 97.0679 47.4203 97.0679C48.3683 97.0679 48.8483 97.2959 48.8483 97.7519C48.8483 98.1839 48.4763 98.3999 47.7443 98.3999H46.6523V99.4439H47.7443C48.6083 99.4439 49.0403 99.6959 49.0403 100.188C49.0403 100.728 48.4043 101.04 47.3843 101.04C46.6883 101.04 46.0043 100.884 45.3203 100.56V101.736C45.9083 102.012 46.6523 102.156 47.5643 102.156Z" fill="white"/>
<path d="M53.1362 102L56.3162 97.9919V102H57.6122V96.1079H56.4002L53.2202 100.104V96.1079H51.9242V102H53.1362Z" fill="white"/>
<path d="M62.8553 102C64.1633 102 64.9193 101.388 64.9193 100.392C64.9193 99.6119 64.5353 99.1079 63.7673 98.8799C64.2113 98.6759 64.5233 98.1959 64.5233 97.6079C64.5233 96.7439 63.8633 96.1079 62.6753 96.1079H59.4593V102H62.8553ZM60.7553 99.5039H62.6273C63.2393 99.5039 63.5993 99.7679 63.5993 100.236C63.5993 100.68 63.2393 100.956 62.6273 100.956H60.7553V99.5039ZM60.7553 97.1519H62.3633C62.9513 97.1519 63.2513 97.3679 63.2513 97.8119C63.2513 98.2079 62.9273 98.4599 62.3633 98.4599H60.7553V97.1519Z" fill="white"/>
<path d="M67.728 102V99.5519H70.716V102H72.012V96.1079H70.716V98.4119H67.728V96.1079H66.432V102H67.728Z" fill="white"/>
<path d="M81.0857 102V96.1079H79.7897V102H81.0857ZM76.6457 102C77.3777 102 77.9417 101.808 78.3497 101.424C78.7577 101.028 78.9617 100.536 78.9617 99.9479C78.9617 98.6999 78.0257 97.8959 76.5857 97.8959H75.1577V96.1079H73.8617V102H76.6457ZM75.1577 98.9879H76.4417C77.2097 98.9879 77.6537 99.3359 77.6537 99.9479C77.6537 100.536 77.1977 100.908 76.4417 100.908H75.1577V98.9879Z" fill="white"/>
<path d="M84.144 102L87.324 97.9919V102H88.62V96.1079H87.408L84.228 100.104V96.1079H82.932V102H84.144ZM85.776 95.3159C86.976 95.3159 87.84 94.5479 87.852 93.3359H86.748C86.736 93.9119 86.34 94.3199 85.764 94.3199C85.176 94.3199 84.792 93.9119 84.792 93.3359H83.7C83.712 94.5479 84.564 95.3159 85.776 95.3159Z" fill="white"/>
<path d="M94.8803 102V97.2479H97.7843V102H99.0803V96.1079H93.5843V102H94.8803Z" fill="white"/>
<path d="M106.464 100.992C106.176 100.992 105.972 100.776 105.972 100.404V98.2079C105.972 96.7679 104.88 95.9519 103.248 95.9519C102.396 95.9519 101.688 96.1199 101.1 96.4559V97.5959C101.664 97.2479 102.288 97.0679 102.96 97.0679C104.112 97.0679 104.688 97.4999 104.688 98.3519V98.6759C104.148 98.3759 103.512 98.2199 102.804 98.2199C102.144 98.2199 101.58 98.3879 101.124 98.7359C100.668 99.0719 100.44 99.5519 100.44 100.176C100.44 100.788 100.644 101.28 101.064 101.628C101.484 101.976 102.012 102.156 102.648 102.156C103.56 102.156 104.28 101.856 104.82 101.244C104.976 101.808 105.396 102.084 106.056 102.084C106.38 102.084 106.632 102.024 106.812 101.892V100.908C106.704 100.968 106.596 100.992 106.464 100.992ZM104.688 100.332C104.316 100.728 103.68 101.04 103.008 101.04C102.252 101.04 101.736 100.728 101.736 100.104C101.736 99.5279 102.252 99.1919 103.116 99.1919C103.668 99.1919 104.196 99.3359 104.688 99.6119V100.332Z" fill="white"/>
<path d="M111.488 95.9519C110.576 95.9519 109.88 96.2759 109.388 96.9119V96.1079H108.092V104.4H109.388V101.196C109.88 101.832 110.576 102.156 111.488 102.156C112.316 102.156 113 101.856 113.54 101.256C114.08 100.656 114.344 99.9239 114.344 99.0599C114.344 98.1839 114.08 97.4519 113.54 96.8519C113 96.2519 112.316 95.9519 111.488 95.9519ZM111.14 97.0919C111.68 97.0919 112.136 97.2839 112.496 97.6679C112.856 98.0399 113.036 98.5079 113.036 99.0599C113.036 99.5999 112.856 100.068 112.496 100.452C112.136 100.824 111.68 101.016 111.14 101.016C110.372 101.016 109.712 100.56 109.388 99.9719V98.1479C109.712 97.5359 110.372 97.0919 111.14 97.0919Z" fill="white"/>
<path d="M118.208 102V97.2479H120.188V96.1079H114.92V97.2479H116.912V102H118.208Z" fill="white"/>
<path d="M122.665 102V99.5519H125.653V102H126.949V96.1079H125.653V98.4119H122.665V96.1079H121.369V102H122.665Z" fill="white"/>
<path d="M128.379 99.0479C128.379 99.9719 128.691 100.716 129.315 101.292C129.951 101.868 130.719 102.156 131.631 102.156C132.543 102.156 133.263 101.964 133.803 101.58V100.488C133.215 100.836 132.591 101.016 131.907 101.016C130.707 101.016 129.843 100.428 129.687 99.4319H134.199V99.0959C134.199 98.0279 133.827 97.0559 132.951 96.4319C132.519 96.1079 132.003 95.9519 131.403 95.9519C130.503 95.9519 129.783 96.2519 129.219 96.8399C128.655 97.4279 128.379 98.1719 128.379 99.0479ZM129.699 98.4479C129.783 97.6799 130.395 97.0439 131.343 97.0439C131.823 97.0439 132.195 97.1879 132.471 97.4759C132.747 97.7639 132.879 98.0879 132.891 98.4479H129.699Z" fill="white"/>
<path d="M139.062 95.9519C138.15 95.9519 137.454 96.2759 136.962 96.9119V96.1079H135.666V104.4H136.962V101.196C137.454 101.832 138.15 102.156 139.062 102.156C139.89 102.156 140.574 101.856 141.114 101.256C141.654 100.656 141.918 99.9239 141.918 99.0599C141.918 98.1839 141.654 97.4519 141.114 96.8519C140.574 96.2519 139.89 95.9519 139.062 95.9519ZM138.714 97.0919C139.254 97.0919 139.71 97.2839 140.07 97.6679C140.43 98.0399 140.61 98.5079 140.61 99.0599C140.61 99.5999 140.43 100.068 140.07 100.452C139.71 100.824 139.254 101.016 138.714 101.016C137.946 101.016 137.286 100.56 136.962 99.9719V98.1479C137.286 97.5359 137.946 97.0919 138.714 97.0919Z" fill="white"/>
<path d="M2.22017 116V111.248H5.12417V116H6.42017V110.108H0.924172V116H2.22017Z" fill="white"/>
<path d="M11.0918 115.016C10.5278 115.016 10.0718 114.824 9.69983 114.452C9.32783 114.08 9.14783 113.612 9.14783 113.048C9.14783 112.496 9.32783 112.028 9.69983 111.656C10.0718 111.284 10.5398 111.092 11.0918 111.092C11.6438 111.092 12.0998 111.284 12.4718 111.656C12.8438 112.028 13.0238 112.496 13.0238 113.048C13.0238 113.612 12.8438 114.08 12.4718 114.452C12.0998 114.824 11.6438 115.016 11.0918 115.016ZM11.0918 116.156C12.0278 116.156 12.7958 115.856 13.4078 115.256C14.0198 114.644 14.3198 113.912 14.3198 113.048C14.3198 112.184 14.0198 111.452 13.4078 110.852C12.7958 110.252 12.0278 109.952 11.0918 109.952C10.1438 109.952 9.37583 110.252 8.76383 110.852C8.15183 111.452 7.85183 112.184 7.85183 113.048C7.85183 113.924 8.15183 114.656 8.76383 115.256C9.37583 115.856 10.1438 116.156 11.0918 116.156Z" fill="white"/>
<path d="M22.2616 109.952C21.3496 109.952 20.6536 110.276 20.1616 110.912V110.108H18.8656V118.4H20.1616V115.196C20.6536 115.832 21.3496 116.156 22.2616 116.156C23.0896 116.156 23.7736 115.856 24.3136 115.256C24.8536 114.656 25.1176 113.924 25.1176 113.06C25.1176 112.184 24.8536 111.452 24.3136 110.852C23.7736 110.252 23.0896 109.952 22.2616 109.952ZM21.9136 111.092C22.4536 111.092 22.9096 111.284 23.2696 111.668C23.6296 112.04 23.8096 112.508 23.8096 113.06C23.8096 113.6 23.6296 114.068 23.2696 114.452C22.9096 114.824 22.4536 115.016 21.9136 115.016C21.1456 115.016 20.4856 114.56 20.1616 113.972V112.148C20.4856 111.536 21.1456 111.092 21.9136 111.092Z" fill="white"/>
<path d="M26.1214 113.048C26.1214 113.972 26.4334 114.716 27.0574 115.292C27.6934 115.868 28.4614 116.156 29.3734 116.156C30.2854 116.156 31.0054 115.964 31.5454 115.58V114.488C30.9574 114.836 30.3334 115.016 29.6494 115.016C28.4494 115.016 27.5854 114.428 27.4294 113.432H31.9414V113.096C31.9414 112.028 31.5694 111.056 30.6934 110.432C30.2614 110.108 29.7454 109.952 29.1454 109.952C28.2454 109.952 27.5254 110.252 26.9614 110.84C26.3974 111.428 26.1214 112.172 26.1214 113.048ZM27.4414 112.448C27.5254 111.68 28.1374 111.044 29.0854 111.044C29.5654 111.044 29.9374 111.188 30.2134 111.476C30.4894 111.764 30.6214 112.088 30.6334 112.448H27.4414Z" fill="white"/>
<path d="M38.9405 114.992C38.6525 114.992 38.4485 114.776 38.4485 114.404V112.208C38.4485 110.768 37.3565 109.952 35.7245 109.952C34.8725 109.952 34.1645 110.12 33.5765 110.456V111.596C34.1405 111.248 34.7645 111.068 35.4365 111.068C36.5885 111.068 37.1645 111.5 37.1645 112.352V112.676C36.6245 112.376 35.9885 112.22 35.2805 112.22C34.6205 112.22 34.0565 112.388 33.6005 112.736C33.1445 113.072 32.9165 113.552 32.9165 114.176C32.9165 114.788 33.1205 115.28 33.5405 115.628C33.9605 115.976 34.4885 116.156 35.1245 116.156C36.0365 116.156 36.7565 115.856 37.2965 115.244C37.4525 115.808 37.8725 116.084 38.5325 116.084C38.8565 116.084 39.1085 116.024 39.2885 115.892V114.908C39.1805 114.968 39.0725 114.992 38.9405 114.992ZM37.1645 114.332C36.7925 114.728 36.1565 115.04 35.4845 115.04C34.7285 115.04 34.2125 114.728 34.2125 114.104C34.2125 113.528 34.7285 113.192 35.5925 113.192C36.1445 113.192 36.6725 113.336 37.1645 113.612V114.332Z" fill="white"/>
<path d="M44.8407 111.248V116H46.1367V110.108H41.3847L41.3487 112.028C41.3127 114.08 41.0127 114.896 40.1607 114.896C40.0767 114.896 39.9807 114.884 39.8967 114.86V115.976C40.0167 116.012 40.1487 116.024 40.3047 116.024C41.4927 115.976 42.0687 115.328 42.3327 114.284C42.5367 113.528 42.5847 112.964 42.5967 112.1L42.6207 111.248H44.8407Z" fill="white"/>
<path d="M49.1987 116L52.3787 111.992V116H53.6747V110.108H52.4627L49.2827 114.104V110.108H47.9867V116H49.1987Z" fill="white"/>
<path d="M57.5018 116.156C58.3538 116.156 59.0498 115.988 59.5658 115.64C60.0818 115.292 60.3458 114.836 60.3458 114.284C60.3458 113.552 59.9738 113.072 59.2178 112.832C59.8178 112.616 60.1178 112.184 60.1178 111.536C60.1178 111.068 59.8778 110.696 59.4098 110.396C58.9418 110.096 58.3418 109.952 57.6338 109.952C56.7698 109.952 56.0378 110.084 55.4258 110.36V111.5C56.0858 111.212 56.7338 111.068 57.3578 111.068C58.3058 111.068 58.7858 111.296 58.7858 111.752C58.7858 112.184 58.4138 112.4 57.6818 112.4H56.5898V113.444H57.6818C58.5458 113.444 58.9778 113.696 58.9778 114.188C58.9778 114.728 58.3418 115.04 57.3218 115.04C56.6258 115.04 55.9418 114.884 55.2578 114.56V115.736C55.8458 116.012 56.5898 116.156 57.5018 116.156Z" fill="white"/>
<path d="M67.3937 114.992C67.1057 114.992 66.9017 114.776 66.9017 114.404V112.208C66.9017 110.768 65.8097 109.952 64.1777 109.952C63.3257 109.952 62.6177 110.12 62.0297 110.456V111.596C62.5937 111.248 63.2177 111.068 63.8897 111.068C65.0417 111.068 65.6177 111.5 65.6177 112.352V112.676C65.0777 112.376 64.4417 112.22 63.7337 112.22C63.0737 112.22 62.5097 112.388 62.0537 112.736C61.5977 113.072 61.3697 113.552 61.3697 114.176C61.3697 114.788 61.5737 115.28 61.9937 115.628C62.4137 115.976 62.9417 116.156 63.5777 116.156C64.4897 116.156 65.2097 115.856 65.7497 115.244C65.9057 115.808 66.3257 116.084 66.9857 116.084C67.3097 116.084 67.5617 116.024 67.7417 115.892V114.908C67.6337 114.968 67.5257 114.992 67.3937 114.992ZM65.6177 114.332C65.2457 114.728 64.6097 115.04 63.9377 115.04C63.1817 115.04 62.6657 114.728 62.6657 114.104C62.6657 113.528 63.1817 113.192 64.0457 113.192C64.5977 113.192 65.1257 113.336 65.6177 113.612V114.332Z" fill="white"/>
<path d="M75.5498 117.62V114.86H74.5178V110.108H73.2218V114.86H70.3178V110.108H69.0218V116H74.2898V117.62H75.5498Z" fill="white"/>
<path d="M78.062 116L81.242 111.992V116H82.538V110.108H81.326L78.146 114.104V110.108H76.85V116H78.062Z" fill="white"/>
<path d="M85.5971 116L88.7771 111.992V116H90.0731V110.108H88.8611L85.6811 114.104V110.108H84.3851V116H85.5971Z" fill="white"/>
<path d="M96.3335 116V111.248H99.2375V116H100.533V110.108H95.0375V116H96.3335Z" fill="white"/>
<path d="M105.781 109.952C104.869 109.952 104.173 110.276 103.681 110.912V110.108H102.385V118.4H103.681V115.196C104.173 115.832 104.869 116.156 105.781 116.156C106.609 116.156 107.293 115.856 107.833 115.256C108.373 114.656 108.637 113.924 108.637 113.06C108.637 112.184 108.373 111.452 107.833 110.852C107.293 110.252 106.609 109.952 105.781 109.952ZM105.433 111.092C105.973 111.092 106.429 111.284 106.789 111.668C107.149 112.04 107.329 112.508 107.329 113.06C107.329 113.6 107.149 114.068 106.789 114.452C106.429 114.824 105.973 115.016 105.433 115.016C104.665 115.016 104.005 114.56 103.681 113.972V112.148C104.005 111.536 104.665 111.092 105.433 111.092Z" fill="white"/>
<path d="M112.881 115.016C112.317 115.016 111.861 114.824 111.489 114.452C111.117 114.08 110.937 113.612 110.937 113.048C110.937 112.496 111.117 112.028 111.489 111.656C111.861 111.284 112.329 111.092 112.881 111.092C113.433 111.092 113.889 111.284 114.261 111.656C114.633 112.028 114.813 112.496 114.813 113.048C114.813 113.612 114.633 114.08 114.261 114.452C113.889 114.824 113.433 115.016 112.881 115.016ZM112.881 116.156C113.817 116.156 114.585 115.856 115.197 115.256C115.809 114.644 116.109 113.912 116.109 113.048C116.109 112.184 115.809 111.452 115.197 110.852C114.585 110.252 113.817 109.952 112.881 109.952C111.933 109.952 111.165 110.252 110.553 110.852C109.941 111.452 109.641 112.184 109.641 113.048C109.641 113.924 109.941 114.656 110.553 115.256C111.165 115.856 111.933 116.156 112.881 116.156Z" fill="white"/>
<path d="M117.117 113.048C117.117 113.972 117.429 114.716 118.053 115.292C118.689 115.868 119.457 116.156 120.369 116.156C121.281 116.156 122.001 115.964 122.541 115.58V114.488C121.953 114.836 121.329 115.016 120.645 115.016C119.445 115.016 118.581 114.428 118.425 113.432H122.937V113.096C122.937 112.028 122.565 111.056 121.689 110.432C121.257 110.108 120.741 109.952 120.141 109.952C119.241 109.952 118.521 110.252 117.957 110.84C117.393 111.428 117.117 112.172 117.117 113.048ZM118.437 112.448C118.521 111.68 119.133 111.044 120.081 111.044C120.561 111.044 120.933 111.188 121.209 111.476C121.485 111.764 121.617 112.088 121.629 112.448H118.437Z" fill="white"/>
<path d="M125.701 116V113.336L128.329 116H130.105L126.889 112.748L129.685 110.108H128.029L125.701 112.34V110.108H124.405V116H125.701Z" fill="white"/>
<path d="M133.759 116V111.248H135.739V110.108H130.471V111.248H132.463V116H133.759Z" fill="white"/>
<path d="M139.635 115.016C139.071 115.016 138.615 114.824 138.243 114.452C137.871 114.08 137.691 113.612 137.691 113.048C137.691 112.496 137.871 112.028 138.243 111.656C138.615 111.284 139.083 111.092 139.635 111.092C140.187 111.092 140.643 111.284 141.015 111.656C141.387 112.028 141.567 112.496 141.567 113.048C141.567 113.612 141.387 114.08 141.015 114.452C140.643 114.824 140.187 115.016 139.635 115.016ZM139.635 116.156C140.571 116.156 141.339 115.856 141.951 115.256C142.563 114.644 142.863 113.912 142.863 113.048C142.863 112.184 142.563 111.452 141.951 110.852C141.339 110.252 140.571 109.952 139.635 109.952C138.687 109.952 137.919 110.252 137.307 110.852C136.695 111.452 136.395 112.184 136.395 113.048C136.395 113.924 136.695 114.656 137.307 115.256C137.919 115.856 138.687 116.156 139.635 116.156Z" fill="white"/>
<path d="M147.687 116C148.995 116 149.751 115.388 149.751 114.392C149.751 113.612 149.367 113.108 148.599 112.88C149.043 112.676 149.355 112.196 149.355 111.608C149.355 110.744 148.695 110.108 147.507 110.108H144.291V116H147.687ZM145.587 113.504H147.459C148.071 113.504 148.431 113.768 148.431 114.236C148.431 114.68 148.071 114.956 147.459 114.956H145.587V113.504ZM145.587 111.152H147.195C147.783 111.152 148.083 111.368 148.083 111.812C148.083 112.208 147.759 112.46 147.195 112.46H145.587V111.152Z" fill="white"/>
<path d="M77 0H0V77H77V0Z" fill="#045796"/>
<path d="M66.5957 29.5107H53.2949V33.0726H66.5957V29.5107Z" fill="white"/>
<path d="M29.8203 42.1597L33.1507 37.3288L15.3135 11.4004H11.8008V15.9719L16.3162 22.4785L29.8203 42.1597Z" fill="white"/>
<path d="M44.3408 11.4004L31.1592 30.5768L34.4756 35.4147L42.2864 24.0351V48.9328H47.7553V11.4004H44.3408Z" fill="white"/>
<path d="M11.8008 19.8066V48.9323H17.2697V27.7857L11.8008 19.8066Z" fill="white"/>
<path d="M52.9093 54.9697H51.3037V65.9848H58.1048V64.4142H52.9093V54.9697Z" fill="white"/>
<path d="M66.4839 54.9697H59.248V56.5403H66.4839V54.9697Z" fill="white"/>
<path d="M40.0858 55.9515C39.2093 55.082 37.779 54.9698 37.2251 54.9769H33.9297V65.9779H35.5283V56.5685H37.2601C37.4494 56.5685 39.3145 56.5474 39.3145 57.9778C39.3145 59.6956 37.5616 59.6535 37.4004 59.6535H36.2224V61.2521H37.3653C37.4845 61.2521 39.027 61.2942 39.9946 60.3266C40.5906 59.7306 40.9131 58.9594 40.9131 57.9848C40.9061 57.1574 40.6537 56.5124 40.0858 55.9515Z" fill="white"/>
<path d="M63.6652 57.2207H62.0596V65.985H63.6652V57.2207Z" fill="white"/>
<path d="M43.5978 54.9697H41.9922V65.9637H43.5978V54.9697Z" fill="white"/>
<path d="M17.1228 63.9935L18.0974 62.5772L12.8668 54.9697H11.8291V56.3089L13.1613 58.216L17.1228 63.9935Z" fill="white"/>
<path d="M21.386 54.9697L17.5156 60.5929L18.4832 62.0163L20.776 58.6718V65.9848H22.3816V54.9697H21.386Z" fill="white"/>
<path d="M11.8291 57.4375V65.9845H13.4347V59.7793L11.8291 57.4375Z" fill="white"/>
<path d="M31.6433 65.9848H33.4032L28.4812 54.9697H27.6748L27.2051 56.0635L31.6433 65.9848Z" fill="white"/>
<path d="M28.8175 61.2658H26.7281L27.7448 58.9169L26.8543 56.8906L22.9209 65.9845H24.6948L26.055 62.8364H29.5257L28.8175 61.2658Z" fill="white"/>
<path d="M46.5924 60.4176L50.3225 54.9697H48.3803L45.162 59.6674H44.2295V61.238H45.2111L48.4434 65.9637H50.3926L46.5924 60.4176Z" fill="white"/>
<path d="M58.1119 54.9697H53.6035V56.5403H58.1119V54.9697Z" fill="white"/>
<path d="M58.1119 59.667H53.6035V61.2376H58.1119V59.667Z" fill="white"/>
<path d="M66.1049 14.7237C65.7753 13.9384 65.3196 13.2723 64.7376 12.7254C64.1557 12.1856 63.4545 11.7649 62.6342 11.4634C61.8139 11.1689 60.9234 11.0146 59.9628 11.0146C59.0233 11.0146 58.1469 11.1549 57.3335 11.4423C56.5272 11.7298 55.8191 12.1505 55.2161 12.7044C54.6131 13.2583 54.1433 13.9314 53.7997 14.7167C53.4632 15.502 53.2949 16.3924 53.2949 17.3951H57.2915C57.2915 16.8692 57.3686 16.4275 57.5228 16.0699C57.6771 15.7123 57.8804 15.4249 58.1398 15.2075C58.3923 14.9902 58.6797 14.8359 59.0023 14.7448C59.3178 14.6536 59.6403 14.6045 59.9698 14.6045C60.8323 14.6045 61.4843 14.8569 61.9331 15.3547C62.3818 15.8596 62.6062 16.5187 62.6062 17.339C62.6062 17.8508 62.522 18.2996 62.3467 18.6922C62.1714 19.0849 61.884 19.5126 61.4703 19.9823L55.1039 27.3794H59.9558L64.2609 22.3802C64.6325 21.9525 64.962 21.5459 65.2565 21.1673C65.551 20.7886 65.7964 20.403 65.9927 20.0174C66.189 19.6317 66.3363 19.2251 66.4414 18.8044C66.5466 18.3837 66.5957 17.9069 66.5957 17.3741C66.5957 16.3995 66.4274 15.509 66.1049 14.7237Z" fill="white"/>
<path d="M77 0H0V77H77V0Z" fill="#0A5896"/>
<path d="M66.5957 29.5107H53.2949V33.0726H66.5957V29.5107Z" fill="white"/>
<path d="M29.8203 42.1597L33.1507 37.3288L15.3135 11.4004H11.8008V15.9719L16.3162 22.4785L29.8203 42.1597Z" fill="white"/>
<path d="M44.3408 11.4004L31.1592 30.5768L34.4756 35.4147L42.2864 24.0351V48.9328H47.7553V11.4004H44.3408Z" fill="white"/>
<path d="M11.8008 19.8066V48.9323H17.2697V27.7857L11.8008 19.8066Z" fill="white"/>
<path d="M52.9093 54.9697H51.3037V65.9848H58.1048V64.4142H52.9093V54.9697Z" fill="white"/>
<path d="M66.4839 54.9697H59.248V56.5403H66.4839V54.9697Z" fill="white"/>
<path d="M40.0858 55.9515C39.2093 55.082 37.779 54.9698 37.2251 54.9769H33.9297V65.9779H35.5283V56.5685H37.2601C37.4494 56.5685 39.3145 56.5474 39.3145 57.9778C39.3145 59.6956 37.5616 59.6535 37.4004 59.6535H36.2224V61.2521H37.3653C37.4845 61.2521 39.027 61.2942 39.9946 60.3266C40.5906 59.7306 40.9131 58.9594 40.9131 57.9848C40.9061 57.1574 40.6537 56.5124 40.0858 55.9515Z" fill="white"/>
<path d="M63.6652 57.2207H62.0596V65.985H63.6652V57.2207Z" fill="white"/>
<path d="M43.5978 54.9697H41.9922V65.9637H43.5978V54.9697Z" fill="white"/>
<path d="M17.1228 63.9935L18.0974 62.5772L12.8668 54.9697H11.8291V56.3089L13.1613 58.216L17.1228 63.9935Z" fill="white"/>
<path d="M21.386 54.9697L17.5156 60.5929L18.4832 62.0163L20.776 58.6718V65.9848H22.3816V54.9697H21.386Z" fill="white"/>
<path d="M11.8291 57.4375V65.9845H13.4347V59.7793L11.8291 57.4375Z" fill="white"/>
<path d="M31.6433 65.9848H33.4032L28.4812 54.9697H27.6748L27.2051 56.0635L31.6433 65.9848Z" fill="white"/>
<path d="M28.8175 61.2658H26.7281L27.7448 58.9169L26.8543 56.8906L22.9209 65.9845H24.6948L26.055 62.8364H29.5257L28.8175 61.2658Z" fill="white"/>
<path d="M46.5924 60.4176L50.3225 54.9697H48.3803L45.162 59.6674H44.2295V61.238H45.2111L48.4434 65.9637H50.3926L46.5924 60.4176Z" fill="white"/>
<path d="M58.1119 54.9697H53.6035V56.5403H58.1119V54.9697Z" fill="white"/>
<path d="M58.1119 59.667H53.6035V61.2376H58.1119V59.667Z" fill="white"/>
<path d="M66.1049 14.7237C65.7753 13.9384 65.3196 13.2723 64.7376 12.7254C64.1557 12.1856 63.4545 11.7649 62.6342 11.4634C61.8139 11.1689 60.9234 11.0146 59.9628 11.0146C59.0233 11.0146 58.1469 11.1549 57.3335 11.4423C56.5272 11.7298 55.8191 12.1505 55.2161 12.7044C54.6131 13.2583 54.1433 13.9314 53.7997 14.7167C53.4632 15.502 53.2949 16.3924 53.2949 17.3951H57.2915C57.2915 16.8692 57.3686 16.4275 57.5228 16.0699C57.6771 15.7123 57.8804 15.4249 58.1398 15.2075C58.3923 14.9902 58.6797 14.8359 59.0023 14.7448C59.3178 14.6536 59.6403 14.6045 59.9698 14.6045C60.8323 14.6045 61.4843 14.8569 61.9331 15.3547C62.3818 15.8596 62.6062 16.5187 62.6062 17.339C62.6062 17.8508 62.522 18.2996 62.3467 18.6922C62.1714 19.0849 61.884 19.5126 61.4703 19.9823L55.1039 27.3794H59.9558L64.2609 22.3802C64.6325 21.9525 64.962 21.5459 65.2565 21.1673C65.551 20.7886 65.7964 20.403 65.9927 20.0174C66.189 19.6317 66.3363 19.2251 66.4414 18.8044C66.5466 18.3837 66.5957 17.9069 66.5957 17.3741C66.5957 16.3995 66.4274 15.509 66.1049 14.7237Z" fill="white"/>
</svg>
