<svg width="842" height="880" viewBox="0 0 842 880" fill="none" xmlns="http://www.w3.org/2000/svg">
<path fill-rule="evenodd" clip-rule="evenodd" d="M0.124023 440.15V442.14L115.57 562.497L101.383 577.273L0.224741 471.952L0.124023 472.048V474.734L99.9963 578.717L85.7551 593.549L0.224549 504.547L0.124023 504.644V507.329L84.3688 594.992L70.0973 609.856L0.224571 537.143L0.124023 537.24V539.925L68.711 611.3L54.5011 626.099L0.223959 569.715L0.124023 569.812V572.495L53.1148 627.543L38.7999 642.451L0.224339 602.335L0.124023 602.431V605.116L37.4137 643.895L23.0984 658.804L0.225582 634.932L0.124023 635.029V637.717L21.712 660.248L0.124023 682.731V685.232L0.317304 685.418L116.955 563.943L131.125 578.735L0.124023 715.302V717.85L0.294508 718.013L132.51 580.18L146.796 595.093L0.124023 747.922V750.424L0.317474 750.609L148.18 596.538L162.417 611.399L0.124023 780.494V783.042L0.294317 783.205L163.802 612.845L178.139 627.811L0.124023 813.092V815.638L0.293954 815.801L179.524 629.256L193.68 644.033L0.124023 845.71V848.211L0.317464 848.397L195.065 645.479L209.087 660.116L0.124023 877.772V879.975H0.782221L210.472 661.561L303.779 758.943L326.345 782.468L312.084 797.41L210.261 691.314L29.1852 879.975H31.9574L210.261 694.203L310.7 798.856L296.527 813.622L210.26 723.911L60.906 879.597L60.5606 879.975H63.315L210.262 726.798L295.141 815.066L280.95 829.85L210.259 756.508L92.1818 879.591L91.8293 879.975H94.5854L210.263 759.393L279.564 831.294L265.161 846.298L210.261 789.102L123.463 879.586L123.062 879.975H125.861L210.261 791.991L263.775 847.742L249.791 862.31L210.232 821.703L154.709 879.586L154.322 879.975H157.107L210.243 824.581L248.405 863.753L233.597 879.18L210.269 854.285L186.008 879.574L185.626 879.975H188.395L210.252 857.191L231.601 879.975H233.095H235.607L312.808 799.549L327.73 783.913L342.016 798.806L264.073 879.975H266.846L343.401 800.251L358.551 816.045L295.357 879.975H298.17L359.936 817.489L373.3 831.422L326.63 879.975H329.405L374.686 832.866L388.908 847.693L358.001 879.908L357.934 879.975H360.708L390.294 849.138L404.576 864.028L389.512 879.722L389.259 879.975H392.042L405.962 865.473L419.872 879.975H420.85V878.105L305.454 757.799L319.651 743.009L420.782 848.351L420.85 848.286V845.534L321.037 741.565L335.315 726.691L420.759 815.755L420.85 815.667V812.961L336.702 725.247L350.88 710.476L420.783 783.16L420.85 783.095V780.344L352.266 709.032L366.615 694.084L420.782 750.563L420.85 750.497V747.744L368.001 692.64L382.226 677.82L420.782 717.945L420.85 717.88V715.128L383.612 676.376L397.916 661.475L420.781 685.37L420.85 685.304V682.55L399.302 660.031L420.85 637.583V635.016L420.69 634.862L304.069 756.354L289.795 741.457L420.85 605.01V602.397L420.713 602.266L288.41 740.012L274.177 725.158L420.85 572.391V569.824L420.69 569.67L272.793 723.712L258.593 708.893L420.85 539.82V537.206L420.713 537.074L257.208 707.447L242.858 692.471L420.85 507.222V504.61L420.713 504.478L241.473 691.025L227.239 676.17L420.85 474.603V472.036L420.69 471.882L225.854 674.724L211.857 660.117L420.85 442.01V440.15L419.862 440.15L210.472 658.671L117.228 561.337L94.6382 537.786L108.962 522.862L210.746 628.965L391.371 440.679L391.812 440.15L389.107 440.15L210.746 626.076L110.348 521.418L124.599 506.57L210.746 596.369L360.097 440.687L360.592 440.15L357.84 440.15L210.746 593.48L125.985 505.126L155.875 473.983L210.746 531.178L297.537 440.702L297.981 440.15L295.294 440.15L210.746 528.289L157.261 472.539L171.509 457.694L210.746 498.582L266.27 440.709L266.77 440.15L264.035 440.15L210.746 495.693L172.895 456.25L187.151 441.396L210.746 465.986L234.988 440.717L235.507 440.15L231.639 440.15L232.217 440.717L210.746 463.097L188.728 440.15L185.574 440.15L93.2526 536.341L78.9992 521.482L156.558 440.66L157.002 440.15L154.275 440.15L77.6136 520.037L63.2391 505.051L125.046 440.741L125.611 440.15L122.841 440.15L61.8535 503.607L47.7417 488.894L93.9954 440.693L94.4912 440.15L91.7437 440.15L46.356 487.45L32.1548 472.644L62.7794 440.708L63.2853 440.15L60.5435 440.15L30.7691 471.2L16.3052 456.12L31.1027 440.726L31.6026 440.15L28.8815 440.15L14.9196 454.676L0.986873 440.15L0.124023 440.15ZM326.57 440.15L210.746 560.885L141.816 489.012L140.373 490.396L210.746 563.774L328.82 440.694L329.332 440.15L326.57 440.15Z" fill="#1C386C"/>
<path fill-rule="evenodd" clip-rule="evenodd" d="M420.85 440.15V442.14L536.295 562.497L522.108 577.273L420.95 471.952L420.85 472.048V474.734L520.722 578.717L506.481 593.549L420.95 504.547L420.85 504.644V507.329L505.094 594.992L490.823 609.856L420.95 537.143L420.85 537.24V539.925L489.437 611.3L475.227 626.099L420.95 569.715L420.85 569.812V572.495L473.84 627.543L459.526 642.451L420.95 602.335L420.85 602.431V605.116L458.139 643.895L443.824 658.804L420.951 634.932L420.85 635.029V637.717L442.438 660.248L420.85 682.731V685.232L421.043 685.418L537.68 563.943L551.851 578.735L420.85 715.302V717.85L421.02 718.013L553.236 580.18L567.521 595.093L420.85 747.922V750.424L421.043 750.609L568.906 596.538L583.143 611.399L420.85 780.494V783.042L421.02 783.205L584.527 612.845L598.864 627.811L420.85 813.092V815.638L421.02 815.801L600.249 629.256L614.406 644.033L420.85 845.71V848.211L421.043 848.397L615.79 645.479L629.812 660.116L420.85 877.772V879.975H421.508L631.197 661.561L724.505 758.943L747.07 782.468L732.81 797.41L630.986 691.314L449.911 879.975H452.683L630.987 694.203L731.426 798.856L717.252 813.622L630.986 723.911L481.632 879.597L481.286 879.975H484.041L630.987 726.798L715.866 815.066L701.675 829.85L630.985 756.508L512.907 879.591L512.555 879.975H515.311L630.988 759.393L700.289 831.294L685.887 846.298L630.986 789.102L544.189 879.586L543.788 879.975H546.587L630.987 791.991L684.501 847.742L670.516 862.31L630.958 821.703L575.434 879.586L575.047 879.975H577.832L630.969 824.581L669.131 863.753L654.322 879.18L630.995 854.285L606.733 879.574L606.352 879.975H609.121L630.978 857.191L652.326 879.975H653.821H656.332L733.533 799.549L748.456 783.913L762.741 798.806L684.799 879.975H687.572L764.127 800.251L779.277 816.045L716.083 879.975H718.895L780.662 817.489L794.026 831.422L747.356 879.975H750.13L795.411 832.866L809.634 847.693L778.727 879.908L778.659 879.975H781.434L811.019 849.138L825.302 864.028L810.238 879.722L809.985 879.975H812.768L826.688 865.473L840.598 879.975H841.576V878.105L726.18 757.799L740.377 743.009L841.508 848.351L841.576 848.286V845.534L741.763 741.565L756.041 726.691L841.484 815.755L841.576 815.667V812.961L757.427 725.247L771.605 710.476L841.508 783.16L841.576 783.095V780.344L772.991 709.032L787.34 694.084L841.507 750.563L841.576 750.497V747.744L788.727 692.64L802.952 677.82L841.508 717.945L841.576 717.88V715.128L804.338 676.376L818.641 661.475L841.507 685.37L841.576 685.304V682.55L820.028 660.031L841.576 637.583V635.016L841.415 634.862L724.794 756.354L710.521 741.457L841.576 605.01V602.397L841.439 602.266L709.136 740.012L694.903 725.158L841.576 572.391V569.824L841.415 569.67L693.518 723.712L679.318 708.893L841.576 539.82V537.206L841.438 537.074L677.934 707.447L663.583 692.471L841.576 507.222V504.61L841.439 504.478L662.199 691.025L647.964 676.17L841.576 474.603V472.036L841.415 471.882L646.579 674.724L632.583 660.117L841.576 442.01V440.15L840.588 440.15L631.198 658.671L537.953 561.337L515.364 537.786L529.687 522.862L631.472 628.965L812.097 440.679L812.537 440.15L809.833 440.15L631.472 626.076L531.074 521.418L545.324 506.57L631.472 596.369L780.823 440.687L781.318 440.15L778.566 440.15L631.472 593.48L546.71 505.126L576.6 473.983L631.472 531.178L718.262 440.702L718.707 440.15L716.02 440.15L631.472 528.289L577.986 472.539L592.234 457.694L631.472 498.582L686.996 440.709L687.496 440.15L684.76 440.15L631.472 495.693L593.62 456.25L607.877 441.396L631.472 465.986L655.714 440.717L656.233 440.15L652.365 440.15L652.942 440.717L631.472 463.097L609.453 440.15L606.3 440.15L513.978 536.341L499.725 521.482L577.283 440.66L577.728 440.15L575.001 440.15L498.339 520.037L483.965 505.051L545.772 440.741L546.336 440.15L543.566 440.15L482.579 503.607L468.467 488.894L514.721 440.693L515.217 440.15L512.469 440.15L467.082 487.45L452.88 472.644L483.505 440.708L484.011 440.15L481.269 440.15L451.495 471.2L437.031 456.12L451.828 440.726L452.328 440.15L449.607 440.15L435.645 454.676L421.712 440.15L420.85 440.15ZM747.295 440.15L631.472 560.885L562.542 489.012L561.098 490.396L631.472 563.774L749.545 440.694L750.058 440.15L747.295 440.15Z" fill="#1C386C"/>
<path fill-rule="evenodd" clip-rule="evenodd" d="M0.124023 0.326172V2.31583L115.57 122.673L101.383 137.449L0.224741 32.1275L0.124023 32.2242V34.9098L99.9963 138.892L85.7551 153.724L0.224549 64.7231L0.124023 64.8197V67.5049L84.3688 155.168L70.0973 170.032L0.224571 97.319L0.124023 97.4156V100.101L68.711 171.475L54.5011 186.275L0.223959 129.891L0.124023 129.987V132.671L53.1148 187.718L38.7999 202.627L0.224339 162.51L0.124023 162.607V165.292L37.4137 204.071L23.0984 218.98L0.225582 195.108L0.124023 195.205V197.892L21.712 220.424L0.124023 242.907V245.408L0.317304 245.594L116.955 124.118L131.125 138.911L0.124023 275.478V278.025L0.294508 278.189L132.51 140.356L146.796 155.268L0.124023 308.098V310.599L0.317474 310.785L148.18 156.714L162.417 171.575L0.124023 340.67V343.218L0.294317 343.381L163.802 173.02L178.139 187.986L0.124023 373.267V375.814L0.293954 375.977L179.524 189.432L193.68 204.209L0.124023 405.886V408.387L0.317464 408.573L195.065 205.655L209.087 220.292L0.124023 437.948V440.15H0.782221L210.472 221.737L303.779 319.118L326.345 342.644L312.084 357.586L210.261 251.49L29.1852 440.15H31.9574L210.261 254.379L310.7 359.032L296.527 373.798L210.26 284.087L60.906 439.773L60.5606 440.15H63.315L210.262 286.974L295.141 375.242L280.95 390.025L210.259 316.683L92.1818 439.767L91.8293 440.15H94.5854L210.263 319.569L279.564 391.469L265.161 406.473L210.261 349.278L123.463 439.761L123.062 440.151H125.861L210.261 352.166L263.775 407.917L249.791 422.486L210.232 381.879L154.709 439.761L154.322 440.151H157.107L210.243 384.757L248.405 423.929L233.597 439.356L210.269 414.46L186.008 439.75L185.626 440.151H188.395L210.252 417.367L231.601 440.151H233.095H235.607L312.808 359.725L327.73 344.089L342.016 358.982L264.073 440.151H266.846L343.401 360.426L358.551 376.221L295.357 440.151H298.17L359.936 377.665L373.3 391.597L326.63 440.151H329.405L374.686 393.042L388.908 407.869L358.001 440.083L357.934 440.151H360.708L390.294 409.314L404.576 424.204L389.512 439.898L389.259 440.151H392.042L405.962 425.649L419.872 440.151H420.85V438.281L305.454 317.975L319.651 303.185L420.782 408.527L420.85 408.461V405.709L321.037 301.741L335.315 286.866L420.759 375.93L420.85 375.843V373.137L336.702 285.422L350.88 270.652L420.783 343.336L420.85 343.271V340.52L352.266 269.208L366.615 254.259L420.782 310.739L420.85 310.673V307.92L368.001 252.815L382.226 237.996L420.782 278.12L420.85 278.056V275.304L383.612 236.552L397.916 221.651L420.781 245.546L420.85 245.48V242.725L399.302 220.207L420.85 197.759V195.192L420.69 195.038L304.069 316.53L289.795 301.633L420.85 165.186V162.573L420.713 162.442L288.41 300.188L274.177 285.334L420.85 132.567V130L420.69 129.846L272.793 283.888L258.593 269.069L420.85 99.9956V97.3819L420.713 97.2502L257.208 267.623L242.858 252.647L420.85 67.3981V64.7854L420.713 64.6539L241.473 251.201L227.239 236.345L420.85 34.7786V32.2119L420.69 32.0582L225.854 234.9L211.857 220.292L420.85 2.18603V0.326189L419.862 0.326189L210.472 218.847L117.228 121.513L94.6382 97.9618L108.962 83.0379L210.746 189.141L391.371 0.85476L391.812 0.326188L389.107 0.326188L210.746 186.252L110.348 81.5937L124.599 66.7455L210.746 156.545L360.097 0.862323L360.592 0.326187L357.84 0.326186L210.746 153.656L125.985 65.3014L155.875 34.1589L210.746 91.3536L297.537 0.877391L297.981 0.326184L295.294 0.326184L210.746 88.4646L157.261 32.7148L171.509 17.8696L210.746 58.7575L266.27 0.884988L266.77 0.326183L264.035 0.326183L210.746 55.8688L172.895 16.4254L187.151 1.5717L210.746 26.1618L234.988 0.892518L235.507 0.326181L231.639 0.326181L232.217 0.892518L210.746 23.2729L188.728 0.32618L185.574 0.326179L93.2526 96.5172L78.9992 81.6575L156.558 0.836017L157.002 0.326178L154.275 0.326178L77.6136 80.2129L63.2391 65.2269L125.046 0.917265L125.611 0.326177L122.841 0.326177L61.8535 63.7824L47.7417 49.0701L93.9954 0.868301L94.4912 0.326176L91.7437 0.326176L46.356 47.6255L32.1548 32.8201L62.7794 0.884175L63.2853 0.326174L60.5435 0.326174L30.7691 31.3755L16.3052 16.2962L31.1027 0.901369L31.6026 0.326173L28.8815 0.326173L14.9196 14.8516L0.986873 0.326172L0.124023 0.326172ZM326.57 0.326185L210.746 121.06L141.816 49.1877L140.373 50.572L210.746 123.95L328.82 0.86986L329.332 0.326185L326.57 0.326185Z" fill="#1C386C"/>
<path fill-rule="evenodd" clip-rule="evenodd" d="M420.85 0.326172V2.31583L536.295 122.673L522.108 137.449L420.95 32.1275L420.85 32.2242V34.9098L520.722 138.892L506.481 153.724L420.95 64.7231L420.85 64.8197V67.5049L505.094 155.168L490.823 170.032L420.95 97.319L420.85 97.4156V100.101L489.437 171.475L475.227 186.275L420.95 129.891L420.85 129.987V132.671L473.84 187.718L459.526 202.627L420.95 162.51L420.85 162.607V165.292L458.139 204.071L443.824 218.98L420.951 195.108L420.85 195.205V197.892L442.438 220.424L420.85 242.907V245.408L421.043 245.594L537.68 124.118L551.851 138.911L420.85 275.478V278.025L421.02 278.189L553.236 140.356L567.521 155.268L420.85 308.098V310.599L421.043 310.785L568.906 156.714L583.143 171.575L420.85 340.67V343.218L421.02 343.381L584.527 173.02L598.864 187.986L420.85 373.267V375.814L421.02 375.977L600.249 189.432L614.406 204.209L420.85 405.886V408.387L421.043 408.573L615.79 205.655L629.812 220.292L420.85 437.948V440.15H421.508L631.197 221.737L724.505 319.118L747.07 342.644L732.81 357.586L630.986 251.49L449.911 440.15H452.683L630.987 254.379L731.426 359.032L717.252 373.798L630.986 284.087L481.632 439.773L481.286 440.15H484.041L630.987 286.974L715.866 375.242L701.675 390.025L630.985 316.683L512.907 439.767L512.555 440.15H515.311L630.988 319.569L700.289 391.469L685.887 406.473L630.986 349.278L544.189 439.761L543.788 440.151H546.587L630.987 352.166L684.501 407.917L670.516 422.486L630.958 381.879L575.434 439.761L575.047 440.151H577.832L630.969 384.757L669.131 423.929L654.322 439.356L630.995 414.46L606.733 439.75L606.352 440.151H609.121L630.978 417.367L652.326 440.151H653.821H656.332L733.533 359.725L748.456 344.089L762.741 358.982L684.799 440.151H687.572L764.127 360.426L779.277 376.221L716.083 440.151H718.895L780.662 377.665L794.026 391.597L747.356 440.151H750.13L795.411 393.042L809.634 407.869L778.727 440.083L778.659 440.151H781.434L811.019 409.314L825.302 424.204L810.238 439.898L809.985 440.151H812.768L826.688 425.649L840.598 440.151H841.576V438.281L726.18 317.975L740.377 303.185L841.508 408.527L841.576 408.461V405.709L741.763 301.741L756.041 286.866L841.484 375.93L841.576 375.843V373.137L757.427 285.422L771.605 270.652L841.508 343.336L841.576 343.271V340.52L772.991 269.208L787.34 254.259L841.507 310.739L841.576 310.673V307.92L788.727 252.815L802.952 237.996L841.508 278.12L841.576 278.056V275.304L804.338 236.552L818.641 221.651L841.507 245.546L841.576 245.48V242.725L820.028 220.207L841.576 197.759V195.192L841.415 195.038L724.794 316.53L710.521 301.633L841.576 165.186V162.573L841.439 162.442L709.136 300.188L694.903 285.334L841.576 132.567V130L841.415 129.846L693.518 283.888L679.318 269.069L841.576 99.9956V97.3819L841.438 97.2502L677.934 267.623L663.583 252.647L841.576 67.3981V64.7854L841.439 64.6539L662.199 251.201L647.964 236.345L841.576 34.7786V32.2119L841.415 32.0582L646.579 234.9L632.583 220.292L841.576 2.18603V0.326189L840.588 0.326189L631.198 218.847L537.953 121.513L515.364 97.9618L529.687 83.0379L631.472 189.141L812.097 0.85476L812.537 0.326188L809.833 0.326188L631.472 186.252L531.074 81.5937L545.324 66.7455L631.472 156.545L780.823 0.862323L781.318 0.326187L778.566 0.326186L631.472 153.656L546.71 65.3014L576.6 34.1589L631.472 91.3536L718.262 0.877391L718.707 0.326184L716.02 0.326184L631.472 88.4646L577.986 32.7148L592.234 17.8696L631.472 58.7575L686.996 0.884988L687.496 0.326183L684.76 0.326183L631.472 55.8688L593.62 16.4254L607.877 1.5717L631.472 26.1618L655.714 0.892518L656.233 0.326181L652.365 0.326181L652.942 0.892518L631.472 23.2729L609.453 0.32618L606.3 0.326179L513.978 96.5172L499.725 81.6575L577.283 0.836017L577.728 0.326178L575.001 0.326178L498.339 80.2129L483.965 65.2269L545.772 0.917265L546.336 0.326177L543.566 0.326177L482.579 63.7824L468.467 49.0701L514.721 0.868301L515.217 0.326176L512.469 0.326176L467.082 47.6255L452.88 32.8201L483.505 0.884175L484.011 0.326174L481.269 0.326174L451.495 31.3755L437.031 16.2962L451.828 0.901369L452.328 0.326173L449.607 0.326173L435.645 14.8516L421.712 0.326172L420.85 0.326172ZM747.295 0.326185L631.472 121.06L562.542 49.1877L561.098 50.572L631.472 123.95L749.545 0.86986L750.058 0.326185L747.295 0.326185Z" fill="#1C386C"/>
</svg>
